%
M48
M72
T01C0.0197
T02C0.0276
T03C0.0400
T04C0.0440
T05C0.0472
T06C0.0512
T07C0.0787
%
T01
X9626Y7678
X8160Y8406
X7610Y9815
X10720Y9631
X12485Y6209
X13360Y6146
X10860Y4959
X13110Y3959
X15095Y3928
X11860Y13209
X4319Y13646
X3532Y12662
X3236Y11628
X3335Y10644
T02
X4110Y9959
X5110Y9959
X4610Y8271
X4610Y7271
X3173Y7271
X3173Y8271
X4110Y11709
X5110Y11709
X4423Y4709
X6423Y4709
X16281Y7459
X16281Y8459
X16443Y10598
X16443Y11598
T03
X2235Y1959
X2235Y2959
X2235Y3959
X10610Y6709
X11610Y6709
X11610Y7709
X10610Y7709
X10610Y8709
X11610Y8709
T04
X14983Y13449
X15983Y13449
X2186Y13633
X2186Y12633
X2186Y11633
X2186Y10633
T05
X7478Y13146
X8926Y13146
X10374Y13146
X10868Y1959
X9350Y1959
X7743Y1959
X6225Y1959
T06
X13142Y2209
X15110Y2209
T07
X17311Y1294
X17164Y13498
X1170Y7396
M30
