G75*
G70*
%OFA0B0*%
%FSLAX24Y24*%
%IPPOS*%
%LPD*%
%AMOC8*
5,1,8,0,0,1.08239X$1,22.5*
%
%ADD10C,0.0000*%
%ADD11C,0.0650*%
%ADD12R,0.0650X0.0650*%
%ADD13R,0.0800X0.0800*%
%ADD14C,0.0800*%
%ADD15OC8,0.0740*%
%ADD16C,0.0600*%
%ADD17C,0.0740*%
%ADD18C,0.0160*%
%ADD19C,0.0400*%
D10*
X000235Y000146D02*
X000235Y014580D01*
X018168Y014580D01*
X018168Y000146D01*
X000235Y000146D01*
X000776Y007396D02*
X000778Y007435D01*
X000784Y007474D01*
X000794Y007512D01*
X000807Y007549D01*
X000824Y007584D01*
X000844Y007618D01*
X000868Y007649D01*
X000895Y007678D01*
X000924Y007704D01*
X000956Y007727D01*
X000990Y007747D01*
X001026Y007763D01*
X001063Y007775D01*
X001102Y007784D01*
X001141Y007789D01*
X001180Y007790D01*
X001219Y007787D01*
X001258Y007780D01*
X001295Y007769D01*
X001332Y007755D01*
X001367Y007737D01*
X001400Y007716D01*
X001431Y007691D01*
X001459Y007664D01*
X001484Y007634D01*
X001506Y007601D01*
X001525Y007567D01*
X001540Y007531D01*
X001552Y007493D01*
X001560Y007455D01*
X001564Y007416D01*
X001564Y007376D01*
X001560Y007337D01*
X001552Y007299D01*
X001540Y007261D01*
X001525Y007225D01*
X001506Y007191D01*
X001484Y007158D01*
X001459Y007128D01*
X001431Y007101D01*
X001400Y007076D01*
X001367Y007055D01*
X001332Y007037D01*
X001295Y007023D01*
X001258Y007012D01*
X001219Y007005D01*
X001180Y007002D01*
X001141Y007003D01*
X001102Y007008D01*
X001063Y007017D01*
X001026Y007029D01*
X000990Y007045D01*
X000956Y007065D01*
X000924Y007088D01*
X000895Y007114D01*
X000868Y007143D01*
X000844Y007174D01*
X000824Y007208D01*
X000807Y007243D01*
X000794Y007280D01*
X000784Y007318D01*
X000778Y007357D01*
X000776Y007396D01*
X016770Y013498D02*
X016772Y013537D01*
X016778Y013576D01*
X016788Y013614D01*
X016801Y013651D01*
X016818Y013686D01*
X016838Y013720D01*
X016862Y013751D01*
X016889Y013780D01*
X016918Y013806D01*
X016950Y013829D01*
X016984Y013849D01*
X017020Y013865D01*
X017057Y013877D01*
X017096Y013886D01*
X017135Y013891D01*
X017174Y013892D01*
X017213Y013889D01*
X017252Y013882D01*
X017289Y013871D01*
X017326Y013857D01*
X017361Y013839D01*
X017394Y013818D01*
X017425Y013793D01*
X017453Y013766D01*
X017478Y013736D01*
X017500Y013703D01*
X017519Y013669D01*
X017534Y013633D01*
X017546Y013595D01*
X017554Y013557D01*
X017558Y013518D01*
X017558Y013478D01*
X017554Y013439D01*
X017546Y013401D01*
X017534Y013363D01*
X017519Y013327D01*
X017500Y013293D01*
X017478Y013260D01*
X017453Y013230D01*
X017425Y013203D01*
X017394Y013178D01*
X017361Y013157D01*
X017326Y013139D01*
X017289Y013125D01*
X017252Y013114D01*
X017213Y013107D01*
X017174Y013104D01*
X017135Y013105D01*
X017096Y013110D01*
X017057Y013119D01*
X017020Y013131D01*
X016984Y013147D01*
X016950Y013167D01*
X016918Y013190D01*
X016889Y013216D01*
X016862Y013245D01*
X016838Y013276D01*
X016818Y013310D01*
X016801Y013345D01*
X016788Y013382D01*
X016778Y013420D01*
X016772Y013459D01*
X016770Y013498D01*
X016917Y001294D02*
X016919Y001333D01*
X016925Y001372D01*
X016935Y001410D01*
X016948Y001447D01*
X016965Y001482D01*
X016985Y001516D01*
X017009Y001547D01*
X017036Y001576D01*
X017065Y001602D01*
X017097Y001625D01*
X017131Y001645D01*
X017167Y001661D01*
X017204Y001673D01*
X017243Y001682D01*
X017282Y001687D01*
X017321Y001688D01*
X017360Y001685D01*
X017399Y001678D01*
X017436Y001667D01*
X017473Y001653D01*
X017508Y001635D01*
X017541Y001614D01*
X017572Y001589D01*
X017600Y001562D01*
X017625Y001532D01*
X017647Y001499D01*
X017666Y001465D01*
X017681Y001429D01*
X017693Y001391D01*
X017701Y001353D01*
X017705Y001314D01*
X017705Y001274D01*
X017701Y001235D01*
X017693Y001197D01*
X017681Y001159D01*
X017666Y001123D01*
X017647Y001089D01*
X017625Y001056D01*
X017600Y001026D01*
X017572Y000999D01*
X017541Y000974D01*
X017508Y000953D01*
X017473Y000935D01*
X017436Y000921D01*
X017399Y000910D01*
X017360Y000903D01*
X017321Y000900D01*
X017282Y000901D01*
X017243Y000906D01*
X017204Y000915D01*
X017167Y000927D01*
X017131Y000943D01*
X017097Y000963D01*
X017065Y000986D01*
X017036Y001012D01*
X017009Y001041D01*
X016985Y001072D01*
X016965Y001106D01*
X016948Y001141D01*
X016935Y001178D01*
X016925Y001216D01*
X016919Y001255D01*
X016917Y001294D01*
D11*
X016281Y007459D03*
X016281Y008459D03*
X016443Y011598D03*
X006423Y004709D03*
X004423Y004709D03*
X004610Y007271D03*
X004610Y008271D03*
X003173Y008271D03*
X003173Y007271D03*
X004110Y009959D03*
X005110Y009959D03*
X004110Y011709D03*
D12*
X005110Y011709D03*
X016443Y010598D03*
D13*
X007478Y013146D03*
X015110Y002209D03*
X010868Y001959D03*
X007743Y001959D03*
D14*
X009350Y001959D03*
X006225Y001959D03*
X013142Y002209D03*
X010374Y013146D03*
X008926Y013146D03*
D15*
X010610Y008709D03*
X010610Y007709D03*
X011610Y007709D03*
X011610Y008709D03*
X011610Y006709D03*
X010610Y006709D03*
D16*
X002535Y003959D02*
X001935Y003959D01*
X001935Y002959D02*
X002535Y002959D01*
X002535Y001959D02*
X001935Y001959D01*
D17*
X001816Y010633D02*
X002556Y010633D01*
X002556Y011633D02*
X001816Y011633D01*
X001816Y012633D02*
X002556Y012633D01*
X002556Y013633D02*
X001816Y013633D01*
X014983Y013819D02*
X014983Y013079D01*
X015983Y013079D02*
X015983Y013819D01*
D18*
X015983Y013449D02*
X016032Y013448D01*
X016032Y012908D01*
X015589Y012465D01*
X015589Y011185D01*
X016176Y010598D01*
X016443Y010598D01*
X016443Y008621D01*
X016281Y008459D01*
X012595Y008459D01*
X012360Y008693D01*
X012360Y008709D01*
X012360Y011709D01*
X008923Y011709D01*
X008923Y013146D01*
X008926Y013146D01*
X008487Y013556D02*
X008058Y013556D01*
X008058Y013570D02*
X008046Y013616D01*
X008022Y013657D01*
X007989Y013690D01*
X007947Y013714D01*
X007902Y013726D01*
X007516Y013726D01*
X007516Y013185D01*
X007440Y013185D01*
X007440Y013726D01*
X007054Y013726D01*
X007009Y013714D01*
X006967Y013690D01*
X006934Y013657D01*
X006910Y013616D01*
X006898Y013570D01*
X006898Y013185D01*
X007440Y013185D01*
X007440Y013108D01*
X007516Y013108D01*
X007516Y012566D01*
X007902Y012566D01*
X007947Y012579D01*
X007989Y012602D01*
X008022Y012636D01*
X008046Y012677D01*
X008058Y012723D01*
X008058Y013108D01*
X007516Y013108D01*
X007516Y013185D01*
X008058Y013185D01*
X008058Y013570D01*
X008058Y013397D02*
X008380Y013397D01*
X008417Y013486D02*
X008326Y013266D01*
X008326Y013027D01*
X008417Y012807D01*
X008586Y012638D01*
X008643Y012614D01*
X008643Y011989D01*
X005635Y011989D01*
X005635Y012117D01*
X005518Y012234D01*
X004703Y012234D01*
X004585Y012117D01*
X004585Y011881D01*
X004578Y011903D01*
X004542Y011974D01*
X004496Y012038D01*
X004439Y012094D01*
X004375Y012141D01*
X004304Y012177D01*
X004229Y012201D01*
X004150Y012214D01*
X004110Y012214D01*
X004071Y012214D01*
X003992Y012201D01*
X003917Y012177D01*
X003846Y012141D01*
X003782Y012094D01*
X003725Y012038D01*
X003679Y011974D01*
X003642Y011903D01*
X003618Y011827D01*
X003609Y011773D01*
X003576Y011855D01*
X003463Y011967D01*
X003316Y012028D01*
X003157Y012028D01*
X003023Y011973D01*
X002879Y012116D01*
X002839Y012133D01*
X002879Y012150D01*
X003039Y012310D01*
X003057Y012353D01*
X003275Y012353D01*
X003305Y012323D01*
X003452Y012262D01*
X003611Y012262D01*
X003758Y012323D01*
X003871Y012435D01*
X003932Y012582D01*
X003932Y012741D01*
X003871Y012888D01*
X003758Y013001D01*
X003611Y013062D01*
X003452Y013062D01*
X003305Y013001D01*
X003218Y012913D01*
X003057Y012913D01*
X003039Y012956D01*
X002879Y013116D01*
X002839Y013133D01*
X002879Y013150D01*
X003039Y013310D01*
X003057Y013353D01*
X004046Y013353D01*
X004093Y013307D01*
X004240Y013246D01*
X004399Y013246D01*
X004546Y013307D01*
X004658Y013419D01*
X004719Y013566D01*
X004719Y013725D01*
X004658Y013873D01*
X014434Y013873D01*
X014433Y013862D02*
X014433Y013479D01*
X014953Y013479D01*
X014953Y014369D01*
X014939Y014369D01*
X014854Y014356D01*
X014771Y014329D01*
X014694Y014289D01*
X014624Y014239D01*
X014563Y014177D01*
X014512Y014107D01*
X014473Y014030D01*
X014446Y013948D01*
X014433Y013862D01*
X014433Y013714D02*
X010570Y013714D01*
X010493Y013746D02*
X010255Y013746D01*
X010034Y013655D01*
X009865Y013486D01*
X009774Y013266D01*
X009774Y013027D01*
X009865Y012807D01*
X010034Y012638D01*
X010255Y012546D01*
X010493Y012546D01*
X010714Y012638D01*
X010883Y012807D01*
X010933Y012929D01*
X011575Y012929D01*
X011634Y012870D01*
X011781Y012809D01*
X011940Y012809D01*
X012087Y012870D01*
X012200Y012982D01*
X012260Y013129D01*
X012260Y013288D01*
X012200Y013435D01*
X012087Y013548D01*
X011940Y013609D01*
X011781Y013609D01*
X011634Y013548D01*
X011575Y013489D01*
X010880Y013489D01*
X010714Y013655D01*
X010493Y013746D01*
X010177Y013714D02*
X009122Y013714D01*
X009045Y013746D02*
X008807Y013746D01*
X008586Y013655D01*
X008417Y013486D01*
X008326Y013239D02*
X008058Y013239D01*
X008058Y013080D02*
X008326Y013080D01*
X008369Y012922D02*
X008058Y012922D01*
X008058Y012763D02*
X008460Y012763D01*
X008643Y012605D02*
X007991Y012605D01*
X007516Y012605D02*
X007440Y012605D01*
X007440Y012566D02*
X007440Y013108D01*
X006898Y013108D01*
X006898Y012723D01*
X006910Y012677D01*
X006934Y012636D01*
X006967Y012602D01*
X007009Y012579D01*
X007054Y012566D01*
X007440Y012566D01*
X007440Y012763D02*
X007516Y012763D01*
X007516Y012922D02*
X007440Y012922D01*
X007440Y013080D02*
X007516Y013080D01*
X007516Y013239D02*
X007440Y013239D01*
X007440Y013397D02*
X007516Y013397D01*
X007516Y013556D02*
X007440Y013556D01*
X007440Y013714D02*
X007516Y013714D01*
X007010Y013714D02*
X004719Y013714D01*
X004715Y013556D02*
X006898Y013556D01*
X006898Y013397D02*
X004636Y013397D01*
X004319Y013646D02*
X004306Y013633D01*
X002186Y013633D01*
X001703Y014203D02*
X001493Y014116D01*
X001333Y013956D01*
X001246Y013747D01*
X001246Y013520D01*
X001333Y013310D01*
X001493Y013150D01*
X001534Y013133D01*
X001493Y013116D01*
X001333Y012956D01*
X001246Y012747D01*
X001246Y012520D01*
X001333Y012310D01*
X001493Y012150D01*
X001534Y012133D01*
X001493Y012116D01*
X001333Y011956D01*
X001246Y011747D01*
X001246Y011520D01*
X001333Y011310D01*
X001493Y011150D01*
X001534Y011133D01*
X001493Y011116D01*
X001333Y010956D01*
X001246Y010747D01*
X001246Y010520D01*
X001333Y010310D01*
X001493Y010150D01*
X001703Y010063D01*
X002670Y010063D01*
X002879Y010150D01*
X003039Y010310D01*
X003057Y010353D01*
X003060Y010353D01*
X003108Y010305D01*
X003255Y010244D01*
X003414Y010244D01*
X003561Y010305D01*
X003674Y010417D01*
X003735Y010564D01*
X003735Y010724D01*
X003674Y010871D01*
X003561Y010983D01*
X003414Y011044D01*
X003255Y011044D01*
X003108Y010983D01*
X003052Y010926D01*
X003039Y010956D01*
X002879Y011116D01*
X002839Y011133D01*
X002879Y011150D01*
X003016Y011287D01*
X003157Y011228D01*
X003316Y011228D01*
X003463Y011289D01*
X003576Y011402D01*
X003634Y011542D01*
X003642Y011515D01*
X003679Y011444D01*
X003725Y011380D01*
X003782Y011324D01*
X003846Y011277D01*
X003917Y011241D01*
X003992Y011216D01*
X004071Y011204D01*
X004110Y011204D01*
X004110Y011709D01*
X004110Y012214D01*
X004110Y011709D01*
X004110Y011709D01*
X004110Y011709D01*
X004110Y011204D01*
X004150Y011204D01*
X004229Y011216D01*
X004304Y011241D01*
X004375Y011277D01*
X004439Y011324D01*
X004496Y011380D01*
X004542Y011444D01*
X004578Y011515D01*
X004585Y011537D01*
X004585Y011301D01*
X004703Y011184D01*
X004830Y011184D01*
X004830Y010411D01*
X004813Y010404D01*
X004665Y010256D01*
X004598Y010093D01*
X004578Y010153D01*
X004542Y010224D01*
X004496Y010288D01*
X004439Y010344D01*
X004375Y010391D01*
X004304Y010427D01*
X004229Y010451D01*
X004150Y010464D01*
X004110Y010464D01*
X004071Y010464D01*
X003992Y010451D01*
X003917Y010427D01*
X003846Y010391D01*
X003782Y010344D01*
X003725Y010288D01*
X003679Y010224D01*
X003642Y010153D01*
X003618Y010077D01*
X003605Y009999D01*
X003605Y009959D01*
X004110Y009959D01*
X004110Y009959D01*
X003605Y009959D01*
X003605Y009919D01*
X003618Y009841D01*
X003642Y009765D01*
X003679Y009694D01*
X003725Y009630D01*
X003782Y009574D01*
X003846Y009527D01*
X003917Y009491D01*
X003992Y009466D01*
X004071Y009454D01*
X004110Y009454D01*
X004110Y009959D01*
X004110Y010464D01*
X004110Y009959D01*
X004110Y009959D01*
X004110Y009959D01*
X004110Y009454D01*
X004150Y009454D01*
X004229Y009466D01*
X004304Y009491D01*
X004375Y009527D01*
X004439Y009574D01*
X004496Y009630D01*
X004542Y009694D01*
X004578Y009765D01*
X004598Y009825D01*
X004665Y009662D01*
X004813Y009514D01*
X004830Y009507D01*
X004830Y009364D01*
X002630Y009364D01*
X002528Y009321D01*
X002449Y009243D01*
X001998Y008792D01*
X001955Y008689D01*
X001955Y004459D01*
X001836Y004459D01*
X001652Y004383D01*
X001512Y004242D01*
X001435Y004058D01*
X001435Y003859D01*
X001512Y003676D01*
X001652Y003535D01*
X001836Y003459D01*
X002635Y003459D01*
X002819Y003535D01*
X002959Y003676D01*
X003035Y003859D01*
X003035Y004058D01*
X002959Y004242D01*
X002819Y004383D01*
X002635Y004459D01*
X002515Y004459D01*
X002515Y008517D01*
X002802Y008804D01*
X005166Y008804D01*
X005269Y008847D01*
X005348Y008925D01*
X005390Y009028D01*
X005390Y009507D01*
X005408Y009514D01*
X005556Y009662D01*
X005635Y009854D01*
X005635Y010063D01*
X005556Y010256D01*
X005408Y010404D01*
X005390Y010411D01*
X005390Y011184D01*
X005518Y011184D01*
X005635Y011301D01*
X005635Y011429D01*
X012080Y011429D01*
X012080Y009045D01*
X011847Y009279D01*
X011374Y009279D01*
X011110Y009015D01*
X010847Y009279D01*
X010374Y009279D01*
X010084Y008989D01*
X008408Y008989D01*
X008305Y008946D01*
X008164Y008806D01*
X008080Y008806D01*
X007933Y008745D01*
X007890Y008702D01*
X007890Y009530D01*
X007950Y009589D01*
X008010Y009736D01*
X008010Y009895D01*
X007950Y010042D01*
X007837Y010154D01*
X007690Y010215D01*
X007531Y010215D01*
X007384Y010154D01*
X007271Y010042D01*
X007210Y009895D01*
X007210Y009736D01*
X007271Y009589D01*
X007330Y009530D01*
X007330Y007072D01*
X007373Y006970D01*
X007792Y006550D01*
X007871Y006472D01*
X007974Y006429D01*
X010084Y006429D01*
X010374Y006139D01*
X010847Y006139D01*
X011125Y006417D01*
X011383Y006159D01*
X011590Y006159D01*
X011590Y006689D01*
X011630Y006689D01*
X011630Y006159D01*
X011838Y006159D01*
X012160Y006481D01*
X012160Y006689D01*
X011630Y006689D01*
X011630Y006729D01*
X012160Y006729D01*
X012160Y006937D01*
X011902Y007195D01*
X012137Y007429D01*
X012193Y007429D01*
X012205Y007416D01*
X012205Y006495D01*
X012146Y006435D01*
X012085Y006288D01*
X012085Y006129D01*
X012146Y005982D01*
X012259Y005870D01*
X012406Y005809D01*
X012565Y005809D01*
X012712Y005870D01*
X012825Y005982D01*
X012885Y006129D01*
X012885Y006288D01*
X012825Y006435D01*
X012765Y006495D01*
X012765Y007588D01*
X012723Y007691D01*
X012546Y007868D01*
X012467Y007946D01*
X012364Y007989D01*
X012137Y007989D01*
X011917Y008209D01*
X012137Y008429D01*
X012229Y008429D01*
X012357Y008300D01*
X012436Y008222D01*
X012539Y008179D01*
X015828Y008179D01*
X015836Y008162D01*
X015983Y008014D01*
X016146Y007946D01*
X016087Y007927D01*
X016016Y007891D01*
X015952Y007844D01*
X015896Y007788D01*
X015849Y007724D01*
X015813Y007653D01*
X015788Y007577D01*
X015776Y007499D01*
X015776Y007459D01*
X016281Y007459D01*
X016786Y007459D01*
X016786Y007499D01*
X016773Y007577D01*
X016749Y007653D01*
X016713Y007724D01*
X016666Y007788D01*
X016610Y007844D01*
X016545Y007891D01*
X016475Y007927D01*
X016415Y007946D01*
X016578Y008014D01*
X016726Y008162D01*
X016806Y008354D01*
X016806Y008563D01*
X016726Y008756D01*
X016723Y008759D01*
X016723Y010073D01*
X016851Y010073D01*
X016968Y010190D01*
X016968Y011006D01*
X016851Y011123D01*
X016615Y011123D01*
X016637Y011130D01*
X016708Y011166D01*
X016772Y011213D01*
X016828Y011269D01*
X016875Y011334D01*
X016911Y011404D01*
X016936Y011480D01*
X016948Y011558D01*
X016948Y011598D01*
X016443Y011598D01*
X015938Y011598D01*
X015938Y011558D01*
X015951Y011480D01*
X015975Y011404D01*
X016011Y011334D01*
X016058Y011269D01*
X016114Y011213D01*
X016178Y011166D01*
X016249Y011130D01*
X016271Y011123D01*
X016047Y011123D01*
X015869Y011301D01*
X015869Y012349D01*
X016029Y012509D01*
X016096Y012509D01*
X016305Y012596D01*
X016466Y012756D01*
X016553Y012966D01*
X016553Y013932D01*
X016466Y014142D01*
X016305Y014302D01*
X016118Y014380D01*
X017968Y014380D01*
X017968Y000346D01*
X000435Y000346D01*
X000435Y014380D01*
X015847Y014380D01*
X015660Y014302D01*
X015499Y014142D01*
X015471Y014073D01*
X015453Y014107D01*
X015402Y014177D01*
X015341Y014239D01*
X015271Y014289D01*
X015194Y014329D01*
X015111Y014356D01*
X015026Y014369D01*
X015013Y014369D01*
X015013Y013479D01*
X014953Y013479D01*
X014953Y013419D01*
X015013Y013419D01*
X015013Y012529D01*
X015026Y012529D01*
X015111Y012543D01*
X015194Y012569D01*
X015271Y012609D01*
X015341Y012660D01*
X015402Y012721D01*
X015453Y012791D01*
X015471Y012825D01*
X015495Y012767D01*
X015351Y012623D01*
X015309Y012521D01*
X015309Y011130D01*
X015351Y011027D01*
X015430Y010948D01*
X015430Y010948D01*
X015918Y010460D01*
X015918Y010190D01*
X016035Y010073D01*
X016163Y010073D01*
X016163Y008978D01*
X015983Y008904D01*
X015836Y008756D01*
X015828Y008739D01*
X012711Y008739D01*
X012640Y008809D01*
X012640Y011765D01*
X012598Y011868D01*
X012519Y011946D01*
X012416Y011989D01*
X009203Y011989D01*
X009203Y012612D01*
X009266Y012638D01*
X009435Y012807D01*
X009526Y013027D01*
X009526Y013266D01*
X009435Y013486D01*
X009266Y013655D01*
X009045Y013746D01*
X008729Y013714D02*
X007946Y013714D01*
X006898Y013239D02*
X002968Y013239D01*
X002915Y013080D02*
X006898Y013080D01*
X006898Y012922D02*
X003837Y012922D01*
X003923Y012763D02*
X006898Y012763D01*
X006965Y012605D02*
X003932Y012605D01*
X003876Y012446D02*
X008643Y012446D01*
X008643Y012288D02*
X003675Y012288D01*
X003830Y012129D02*
X002848Y012129D01*
X003017Y012288D02*
X003389Y012288D01*
X003454Y011971D02*
X003677Y011971D01*
X003616Y011812D02*
X003593Y011812D01*
X003236Y011628D02*
X001941Y011628D01*
X002186Y011633D01*
X001525Y012129D02*
X000435Y012129D01*
X000435Y011971D02*
X001348Y011971D01*
X001274Y011812D02*
X000435Y011812D01*
X000435Y011654D02*
X001246Y011654D01*
X001256Y011495D02*
X000435Y011495D01*
X000435Y011337D02*
X001322Y011337D01*
X001465Y011178D02*
X000435Y011178D01*
X000435Y011020D02*
X001397Y011020D01*
X001294Y010861D02*
X000435Y010861D01*
X000435Y010703D02*
X001246Y010703D01*
X001246Y010544D02*
X000435Y010544D01*
X000435Y010386D02*
X001302Y010386D01*
X001416Y010227D02*
X000435Y010227D01*
X000435Y010069D02*
X001689Y010069D01*
X002186Y010633D02*
X003324Y010633D01*
X003335Y010644D01*
X003472Y011020D02*
X004830Y011020D01*
X004830Y011178D02*
X002908Y011178D01*
X002976Y011020D02*
X003197Y011020D01*
X003511Y011337D02*
X003768Y011337D01*
X003652Y011495D02*
X003614Y011495D01*
X004110Y011495D02*
X004110Y011495D01*
X004110Y011337D02*
X004110Y011337D01*
X004110Y011654D02*
X004110Y011654D01*
X004110Y011812D02*
X004110Y011812D01*
X004110Y011971D02*
X004110Y011971D01*
X004110Y012129D02*
X004110Y012129D01*
X004391Y012129D02*
X004598Y012129D01*
X004585Y011971D02*
X004544Y011971D01*
X005110Y011709D02*
X008923Y011709D01*
X009203Y012129D02*
X015309Y012129D01*
X015309Y011971D02*
X012460Y011971D01*
X012621Y011812D02*
X015309Y011812D01*
X015309Y011654D02*
X012640Y011654D01*
X012640Y011495D02*
X015309Y011495D01*
X015309Y011337D02*
X012640Y011337D01*
X012640Y011178D02*
X015309Y011178D01*
X015358Y011020D02*
X012640Y011020D01*
X012640Y010861D02*
X015517Y010861D01*
X015675Y010703D02*
X012640Y010703D01*
X012640Y010544D02*
X015834Y010544D01*
X015918Y010386D02*
X012640Y010386D01*
X012640Y010227D02*
X015918Y010227D01*
X016163Y010069D02*
X012640Y010069D01*
X012640Y009910D02*
X016163Y009910D01*
X016163Y009752D02*
X012640Y009752D01*
X012640Y009593D02*
X016163Y009593D01*
X016163Y009435D02*
X012640Y009435D01*
X012640Y009276D02*
X016163Y009276D01*
X016163Y009118D02*
X012640Y009118D01*
X012640Y008959D02*
X016117Y008959D01*
X015880Y008801D02*
X012649Y008801D01*
X012360Y008709D02*
X011610Y008709D01*
X012033Y008325D02*
X012332Y008325D01*
X012117Y008008D02*
X015996Y008008D01*
X015960Y007850D02*
X012564Y007850D01*
X012722Y007691D02*
X015832Y007691D01*
X015781Y007533D02*
X012765Y007533D01*
X012485Y007532D02*
X012309Y007709D01*
X011610Y007709D01*
X011262Y008167D02*
X010959Y008167D01*
X010917Y008209D02*
X011110Y008015D01*
X011304Y008209D01*
X011110Y008403D01*
X010917Y008209D01*
X011033Y008325D02*
X011188Y008325D01*
X010610Y008709D02*
X008463Y008709D01*
X008209Y008455D01*
X008160Y008406D01*
X008560Y008409D02*
X008579Y008429D01*
X010084Y008429D01*
X010304Y008209D01*
X010053Y007958D01*
X009912Y007958D01*
X009853Y008017D01*
X009706Y008078D01*
X009547Y008078D01*
X009400Y008017D01*
X009287Y007904D01*
X009226Y007757D01*
X009226Y007598D01*
X009287Y007451D01*
X009400Y007339D01*
X009547Y007278D01*
X009706Y007278D01*
X009853Y007339D01*
X009912Y007398D01*
X010116Y007398D01*
X010304Y007209D01*
X010084Y006989D01*
X008146Y006989D01*
X007890Y007244D01*
X007890Y008109D01*
X007933Y008067D01*
X008080Y008006D01*
X008239Y008006D01*
X008386Y008067D01*
X008499Y008179D01*
X008560Y008326D01*
X008560Y008409D01*
X008559Y008325D02*
X010188Y008325D01*
X010262Y008167D02*
X008487Y008167D01*
X008246Y008008D02*
X009391Y008008D01*
X009265Y007850D02*
X007890Y007850D01*
X007890Y008008D02*
X008074Y008008D01*
X007890Y007691D02*
X009226Y007691D01*
X009253Y007533D02*
X007890Y007533D01*
X007890Y007374D02*
X009364Y007374D01*
X009889Y007374D02*
X010139Y007374D01*
X010297Y007216D02*
X007919Y007216D01*
X008077Y007057D02*
X010153Y007057D01*
X010610Y006709D02*
X008030Y006709D01*
X007610Y007128D01*
X007610Y009815D01*
X007299Y010069D02*
X005633Y010069D01*
X005635Y009910D02*
X007217Y009910D01*
X007210Y009752D02*
X005593Y009752D01*
X005487Y009593D02*
X007269Y009593D01*
X007330Y009435D02*
X005390Y009435D01*
X005390Y009276D02*
X007330Y009276D01*
X007330Y009118D02*
X005390Y009118D01*
X005362Y008959D02*
X007330Y008959D01*
X007330Y008801D02*
X002799Y008801D01*
X002908Y008703D02*
X002844Y008657D01*
X002788Y008600D01*
X002741Y008536D01*
X002705Y008465D01*
X002680Y008390D01*
X002668Y008311D01*
X002668Y008271D01*
X002668Y008232D01*
X002680Y008153D01*
X002705Y008078D01*
X002741Y008007D01*
X002788Y007942D01*
X002844Y007886D01*
X002908Y007839D01*
X002979Y007803D01*
X003039Y007784D01*
X002876Y007716D01*
X002728Y007569D01*
X002648Y007376D01*
X002648Y007167D01*
X002728Y006974D01*
X002876Y006826D01*
X002893Y006819D01*
X002893Y005082D01*
X002936Y004979D01*
X003014Y004901D01*
X003443Y004472D01*
X003546Y004429D01*
X003971Y004429D01*
X003978Y004412D01*
X004126Y004264D01*
X004319Y004184D01*
X004527Y004184D01*
X004720Y004264D01*
X004868Y004412D01*
X004948Y004604D01*
X004948Y004813D01*
X004868Y005006D01*
X004720Y005154D01*
X004527Y005234D01*
X004319Y005234D01*
X004126Y005154D01*
X003978Y005006D01*
X003971Y004989D01*
X003718Y004989D01*
X003453Y005254D01*
X003453Y006819D01*
X003470Y006826D01*
X003618Y006974D01*
X003698Y007167D01*
X003698Y007376D01*
X003618Y007569D01*
X003470Y007716D01*
X003307Y007784D01*
X003367Y007803D01*
X003438Y007839D01*
X003502Y007886D01*
X003558Y007942D01*
X003605Y008007D01*
X003641Y008078D01*
X003666Y008153D01*
X003678Y008232D01*
X003678Y008271D01*
X003173Y008271D01*
X002668Y008271D01*
X003173Y008271D01*
X003173Y008271D01*
X003173Y008271D01*
X003678Y008271D01*
X003678Y008311D01*
X003666Y008390D01*
X003641Y008465D01*
X003605Y008536D01*
X003558Y008600D01*
X003502Y008657D01*
X003438Y008703D01*
X003367Y008739D01*
X003291Y008764D01*
X003213Y008776D01*
X003173Y008776D01*
X003133Y008776D01*
X003055Y008764D01*
X002979Y008739D01*
X002908Y008703D01*
X002830Y008642D02*
X002641Y008642D01*
X002715Y008484D02*
X002515Y008484D01*
X002515Y008325D02*
X002670Y008325D01*
X002678Y008167D02*
X002515Y008167D01*
X002515Y008008D02*
X002740Y008008D01*
X002894Y007850D02*
X002515Y007850D01*
X002515Y007691D02*
X002851Y007691D01*
X002713Y007533D02*
X002515Y007533D01*
X002515Y007374D02*
X002648Y007374D01*
X002648Y007216D02*
X002515Y007216D01*
X002515Y007057D02*
X002693Y007057D01*
X002803Y006899D02*
X002515Y006899D01*
X002515Y006740D02*
X002893Y006740D01*
X002893Y006582D02*
X002515Y006582D01*
X002515Y006423D02*
X002893Y006423D01*
X002893Y006265D02*
X002515Y006265D01*
X002515Y006106D02*
X002893Y006106D01*
X002893Y005948D02*
X002515Y005948D01*
X002515Y005789D02*
X002893Y005789D01*
X002893Y005631D02*
X002515Y005631D01*
X002515Y005472D02*
X002893Y005472D01*
X002893Y005314D02*
X002515Y005314D01*
X002515Y005155D02*
X002893Y005155D01*
X002928Y004997D02*
X002515Y004997D01*
X002515Y004838D02*
X003077Y004838D01*
X003235Y004680D02*
X002515Y004680D01*
X002515Y004521D02*
X003394Y004521D01*
X003602Y004709D02*
X003173Y005138D01*
X003173Y007271D01*
X003653Y007057D02*
X004131Y007057D01*
X004165Y006974D02*
X004313Y006826D01*
X004330Y006819D01*
X004330Y006302D01*
X004373Y006199D01*
X004835Y005738D01*
X004913Y005659D01*
X005016Y005616D01*
X005794Y005616D01*
X006143Y005268D01*
X006143Y005161D01*
X006126Y005154D01*
X005978Y005006D01*
X005898Y004813D01*
X005898Y004604D01*
X005978Y004412D01*
X006126Y004264D01*
X006319Y004184D01*
X006527Y004184D01*
X006720Y004264D01*
X006868Y004412D01*
X006948Y004604D01*
X006948Y004813D01*
X006868Y005006D01*
X006720Y005154D01*
X006703Y005161D01*
X006703Y005440D01*
X006660Y005542D01*
X006582Y005621D01*
X006069Y006134D01*
X005966Y006176D01*
X005188Y006176D01*
X004890Y006474D01*
X004890Y006819D01*
X004908Y006826D01*
X005056Y006974D01*
X005135Y007167D01*
X005135Y007376D01*
X005056Y007569D01*
X004908Y007716D01*
X004745Y007784D01*
X004804Y007803D01*
X004875Y007839D01*
X004939Y007886D01*
X004996Y007942D01*
X005042Y008007D01*
X005078Y008078D01*
X005103Y008153D01*
X005115Y008232D01*
X005115Y008271D01*
X004610Y008271D01*
X004105Y008271D01*
X004105Y008232D01*
X004118Y008153D01*
X004142Y008078D01*
X004179Y008007D01*
X004225Y007942D01*
X004282Y007886D01*
X004346Y007839D01*
X004417Y007803D01*
X004476Y007784D01*
X004313Y007716D01*
X004165Y007569D01*
X004085Y007376D01*
X004085Y007167D01*
X004165Y006974D01*
X004240Y006899D02*
X003543Y006899D01*
X003453Y006740D02*
X004330Y006740D01*
X004330Y006582D02*
X003453Y006582D01*
X003453Y006423D02*
X004330Y006423D01*
X004346Y006265D02*
X003453Y006265D01*
X003453Y006106D02*
X004466Y006106D01*
X004624Y005948D02*
X003453Y005948D01*
X003453Y005789D02*
X004783Y005789D01*
X004981Y005631D02*
X003453Y005631D01*
X003453Y005472D02*
X005938Y005472D01*
X006097Y005314D02*
X003453Y005314D01*
X003551Y005155D02*
X004129Y005155D01*
X003974Y004997D02*
X003710Y004997D01*
X003602Y004709D02*
X004423Y004709D01*
X004914Y004521D02*
X005932Y004521D01*
X005898Y004680D02*
X004948Y004680D01*
X004938Y004838D02*
X005908Y004838D01*
X005974Y004997D02*
X004872Y004997D01*
X004717Y005155D02*
X006129Y005155D01*
X006423Y005384D02*
X006423Y004709D01*
X006914Y004521D02*
X010580Y004521D01*
X010580Y004673D02*
X010580Y002559D01*
X010385Y002559D01*
X010268Y002442D01*
X010268Y001476D01*
X010385Y001359D01*
X011351Y001359D01*
X011468Y001476D01*
X011468Y002442D01*
X011351Y002559D01*
X011140Y002559D01*
X011140Y004673D01*
X011200Y004732D01*
X011260Y004879D01*
X011260Y005038D01*
X011200Y005185D01*
X011087Y005298D01*
X010940Y005359D01*
X010781Y005359D01*
X010634Y005298D01*
X010521Y005185D01*
X010460Y005038D01*
X010460Y004879D01*
X010521Y004732D01*
X010580Y004673D01*
X010574Y004680D02*
X006948Y004680D01*
X006938Y004838D02*
X010477Y004838D01*
X010460Y004997D02*
X006872Y004997D01*
X006717Y005155D02*
X010509Y005155D01*
X010672Y005314D02*
X006703Y005314D01*
X006423Y005384D02*
X005910Y005896D01*
X005072Y005896D01*
X004610Y006358D01*
X004610Y007271D01*
X005090Y007057D02*
X007337Y007057D01*
X007330Y007216D02*
X005135Y007216D01*
X005135Y007374D02*
X007330Y007374D01*
X007330Y007533D02*
X005070Y007533D01*
X004933Y007691D02*
X007330Y007691D01*
X007330Y007850D02*
X004890Y007850D01*
X005043Y008008D02*
X007330Y008008D01*
X007330Y008167D02*
X005105Y008167D01*
X005115Y008271D02*
X005115Y008311D01*
X005103Y008390D01*
X005078Y008465D01*
X005042Y008536D01*
X004996Y008600D01*
X004939Y008657D01*
X004875Y008703D01*
X004804Y008739D01*
X004729Y008764D01*
X004650Y008776D01*
X004610Y008776D01*
X004571Y008776D01*
X004492Y008764D01*
X004417Y008739D01*
X004346Y008703D01*
X004282Y008657D01*
X004225Y008600D01*
X004179Y008536D01*
X004142Y008465D01*
X004118Y008390D01*
X004105Y008311D01*
X004105Y008271D01*
X004610Y008271D01*
X004610Y008271D01*
X004610Y008776D01*
X004610Y008271D01*
X004610Y008271D01*
X004610Y008271D01*
X005115Y008271D01*
X005113Y008325D02*
X007330Y008325D01*
X007330Y008484D02*
X005069Y008484D01*
X004954Y008642D02*
X007330Y008642D01*
X007890Y008801D02*
X008069Y008801D01*
X007890Y008959D02*
X008336Y008959D01*
X007890Y009118D02*
X010213Y009118D01*
X010372Y009276D02*
X007890Y009276D01*
X007890Y009435D02*
X012080Y009435D01*
X012080Y009593D02*
X007952Y009593D01*
X008010Y009752D02*
X012080Y009752D01*
X012080Y009910D02*
X008004Y009910D01*
X007922Y010069D02*
X012080Y010069D01*
X012080Y010227D02*
X005568Y010227D01*
X005426Y010386D02*
X012080Y010386D01*
X012080Y010544D02*
X005390Y010544D01*
X005390Y010703D02*
X012080Y010703D01*
X012080Y010861D02*
X005390Y010861D01*
X005390Y011020D02*
X012080Y011020D01*
X012080Y011178D02*
X005390Y011178D01*
X005635Y011337D02*
X012080Y011337D01*
X010635Y012605D02*
X014702Y012605D01*
X014694Y012609D02*
X014771Y012569D01*
X014854Y012543D01*
X014939Y012529D01*
X014953Y012529D01*
X014953Y013419D01*
X014433Y013419D01*
X014433Y013036D01*
X014446Y012950D01*
X014473Y012868D01*
X014512Y012791D01*
X014563Y012721D01*
X014624Y012660D01*
X014694Y012609D01*
X014532Y012763D02*
X010839Y012763D01*
X010930Y012922D02*
X011582Y012922D01*
X011860Y013209D02*
X010436Y013209D01*
X010374Y013146D01*
X010298Y013146D01*
X009935Y013556D02*
X009365Y013556D01*
X009471Y013397D02*
X009828Y013397D01*
X009774Y013239D02*
X009526Y013239D01*
X009526Y013080D02*
X009774Y013080D01*
X009817Y012922D02*
X009482Y012922D01*
X009392Y012763D02*
X009908Y012763D01*
X010113Y012605D02*
X009203Y012605D01*
X009203Y012446D02*
X015309Y012446D01*
X015309Y012288D02*
X009203Y012288D01*
X008643Y012129D02*
X005623Y012129D01*
X005110Y011709D02*
X005110Y009959D01*
X005110Y009084D01*
X002686Y009084D01*
X002235Y008633D01*
X002235Y003959D01*
X002215Y003439D02*
X001898Y003439D01*
X001823Y003427D01*
X001751Y003404D01*
X001684Y003369D01*
X001623Y003325D01*
X001569Y003272D01*
X001525Y003210D01*
X001491Y003143D01*
X001467Y003071D01*
X001455Y002997D01*
X001455Y002979D01*
X002215Y002979D01*
X002215Y002939D01*
X001455Y002939D01*
X001455Y002921D01*
X001467Y002847D01*
X001491Y002775D01*
X001525Y002707D01*
X001569Y002646D01*
X001623Y002593D01*
X001684Y002548D01*
X001751Y002514D01*
X001823Y002491D01*
X001898Y002479D01*
X002215Y002479D01*
X002215Y002939D01*
X002255Y002939D01*
X002255Y002479D01*
X002573Y002479D01*
X002648Y002491D01*
X002720Y002514D01*
X002787Y002548D01*
X002848Y002593D01*
X002902Y002646D01*
X002946Y002707D01*
X002980Y002775D01*
X003004Y002847D01*
X003015Y002921D01*
X003015Y002939D01*
X002255Y002939D01*
X002255Y002979D01*
X002215Y002979D01*
X002215Y003439D01*
X002215Y003412D02*
X002255Y003412D01*
X002255Y003439D02*
X002255Y002979D01*
X003015Y002979D01*
X003015Y002997D01*
X003004Y003071D01*
X002980Y003143D01*
X002946Y003210D01*
X002902Y003272D01*
X002848Y003325D01*
X002787Y003369D01*
X002720Y003404D01*
X002648Y003427D01*
X002573Y003439D01*
X002255Y003439D01*
X002255Y003253D02*
X002215Y003253D01*
X002215Y003095D02*
X002255Y003095D01*
X002255Y002936D02*
X002215Y002936D01*
X002215Y002778D02*
X002255Y002778D01*
X002255Y002619D02*
X002215Y002619D01*
X001836Y002459D02*
X001652Y002383D01*
X001512Y002242D01*
X001435Y002058D01*
X001435Y001859D01*
X001512Y001676D01*
X001652Y001535D01*
X001836Y001459D01*
X002635Y001459D01*
X002819Y001535D01*
X002959Y001676D01*
X002961Y001679D01*
X003875Y001679D01*
X003978Y001722D01*
X004057Y001800D01*
X004685Y002429D01*
X005885Y002429D01*
X005847Y002401D01*
X005783Y002337D01*
X005729Y002263D01*
X005688Y002182D01*
X005659Y002095D01*
X005645Y002005D01*
X005645Y001997D01*
X006187Y001997D01*
X006187Y001921D01*
X005645Y001921D01*
X005645Y001913D01*
X005659Y001823D01*
X005688Y001736D01*
X005729Y001655D01*
X005783Y001581D01*
X005847Y001517D01*
X005921Y001463D01*
X006002Y001421D01*
X006089Y001393D01*
X006179Y001379D01*
X006187Y001379D01*
X006187Y001921D01*
X006263Y001921D01*
X006263Y001997D01*
X006805Y001997D01*
X006805Y002005D01*
X006791Y002095D01*
X006763Y002182D01*
X006721Y002263D01*
X006667Y002337D01*
X006603Y002401D01*
X006565Y002429D01*
X007143Y002429D01*
X007143Y001476D01*
X007260Y001359D01*
X008226Y001359D01*
X008343Y001476D01*
X008343Y002442D01*
X008226Y002559D01*
X007969Y002559D01*
X007969Y002560D01*
X007934Y002590D01*
X007902Y002623D01*
X007892Y002627D01*
X007561Y002914D01*
X007529Y002946D01*
X007520Y002950D01*
X007512Y002957D01*
X007468Y002971D01*
X007426Y002989D01*
X007416Y002989D01*
X007406Y002992D01*
X007360Y002989D01*
X004514Y002989D01*
X004411Y002946D01*
X004332Y002868D01*
X004332Y002868D01*
X003703Y002239D01*
X002961Y002239D01*
X002959Y002242D01*
X002819Y002383D01*
X002635Y002459D01*
X001836Y002459D01*
X001596Y002619D02*
X000435Y002619D01*
X000435Y002461D02*
X003925Y002461D01*
X003767Y002302D02*
X002899Y002302D01*
X002875Y002619D02*
X004084Y002619D01*
X004242Y002778D02*
X002981Y002778D01*
X003015Y002936D02*
X004401Y002936D01*
X004569Y002709D02*
X007370Y002709D01*
X007743Y002385D01*
X007743Y001959D01*
X008343Y001985D02*
X009312Y001985D01*
X009312Y001997D02*
X009312Y001921D01*
X008770Y001921D01*
X008770Y001913D01*
X008784Y001823D01*
X008813Y001736D01*
X008854Y001655D01*
X008908Y001581D01*
X008972Y001517D01*
X009046Y001463D01*
X009127Y001421D01*
X009214Y001393D01*
X009304Y001379D01*
X009312Y001379D01*
X009312Y001921D01*
X009388Y001921D01*
X009388Y001997D01*
X009312Y001997D01*
X009312Y002539D01*
X009304Y002539D01*
X009214Y002525D01*
X009127Y002496D01*
X009046Y002455D01*
X008972Y002401D01*
X008908Y002337D01*
X008854Y002263D01*
X008813Y002182D01*
X008784Y002095D01*
X008770Y002005D01*
X008770Y001997D01*
X009312Y001997D01*
X009388Y001997D02*
X009388Y002539D01*
X009396Y002539D01*
X009486Y002525D01*
X009573Y002496D01*
X009654Y002455D01*
X009728Y002401D01*
X009792Y002337D01*
X009846Y002263D01*
X009888Y002182D01*
X009916Y002095D01*
X009930Y002005D01*
X009930Y001997D01*
X009388Y001997D01*
X009388Y001985D02*
X010268Y001985D01*
X010268Y001827D02*
X009916Y001827D01*
X009916Y001823D02*
X009930Y001913D01*
X009930Y001921D01*
X009388Y001921D01*
X009388Y001379D01*
X009396Y001379D01*
X009486Y001393D01*
X009573Y001421D01*
X009654Y001463D01*
X009728Y001517D01*
X009792Y001581D01*
X009846Y001655D01*
X009888Y001736D01*
X009916Y001823D01*
X009853Y001668D02*
X010268Y001668D01*
X010268Y001510D02*
X009719Y001510D01*
X009388Y001510D02*
X009312Y001510D01*
X009312Y001668D02*
X009388Y001668D01*
X009388Y001827D02*
X009312Y001827D01*
X009312Y002144D02*
X009388Y002144D01*
X009388Y002302D02*
X009312Y002302D01*
X009312Y002461D02*
X009388Y002461D01*
X009642Y002461D02*
X010287Y002461D01*
X010268Y002302D02*
X009817Y002302D01*
X009900Y002144D02*
X010268Y002144D01*
X010580Y002619D02*
X007905Y002619D01*
X007718Y002778D02*
X010580Y002778D01*
X010580Y002936D02*
X007539Y002936D01*
X007143Y002302D02*
X006692Y002302D01*
X006775Y002144D02*
X007143Y002144D01*
X007143Y001985D02*
X006263Y001985D01*
X006263Y001921D02*
X006805Y001921D01*
X006805Y001913D01*
X006791Y001823D01*
X006763Y001736D01*
X006721Y001655D01*
X006667Y001581D01*
X006603Y001517D01*
X006529Y001463D01*
X006448Y001421D01*
X006361Y001393D01*
X006271Y001379D01*
X006263Y001379D01*
X006263Y001921D01*
X006263Y001827D02*
X006187Y001827D01*
X006187Y001985D02*
X004242Y001985D01*
X004083Y001827D02*
X005659Y001827D01*
X005722Y001668D02*
X002952Y001668D01*
X002758Y001510D02*
X005856Y001510D01*
X006187Y001510D02*
X006263Y001510D01*
X006263Y001668D02*
X006187Y001668D01*
X006594Y001510D02*
X007143Y001510D01*
X007143Y001668D02*
X006728Y001668D01*
X006791Y001827D02*
X007143Y001827D01*
X008343Y001827D02*
X008784Y001827D01*
X008847Y001668D02*
X008343Y001668D01*
X008343Y001510D02*
X008981Y001510D01*
X008800Y002144D02*
X008343Y002144D01*
X008343Y002302D02*
X008883Y002302D01*
X009058Y002461D02*
X008324Y002461D01*
X010580Y003095D02*
X002996Y003095D01*
X002915Y003253D02*
X010580Y003253D01*
X010580Y003412D02*
X002695Y003412D01*
X002854Y003570D02*
X010580Y003570D01*
X010580Y003729D02*
X002981Y003729D01*
X003035Y003887D02*
X010580Y003887D01*
X010580Y004046D02*
X003035Y004046D01*
X002975Y004204D02*
X004269Y004204D01*
X004577Y004204D02*
X006269Y004204D01*
X006577Y004204D02*
X010580Y004204D01*
X010580Y004363D02*
X006819Y004363D01*
X006026Y004363D02*
X004819Y004363D01*
X004026Y004363D02*
X002839Y004363D01*
X001955Y004521D02*
X000435Y004521D01*
X000435Y004363D02*
X001632Y004363D01*
X001496Y004204D02*
X000435Y004204D01*
X000435Y004046D02*
X001435Y004046D01*
X001435Y003887D02*
X000435Y003887D01*
X000435Y003729D02*
X001490Y003729D01*
X001617Y003570D02*
X000435Y003570D01*
X000435Y003412D02*
X001776Y003412D01*
X001556Y003253D02*
X000435Y003253D01*
X000435Y003095D02*
X001475Y003095D01*
X001455Y002936D02*
X000435Y002936D01*
X000435Y002778D02*
X001490Y002778D01*
X001572Y002302D02*
X000435Y002302D01*
X000435Y002144D02*
X001471Y002144D01*
X001435Y001985D02*
X000435Y001985D01*
X000435Y001827D02*
X001449Y001827D01*
X001519Y001668D02*
X000435Y001668D01*
X000435Y001510D02*
X001713Y001510D01*
X002235Y001959D02*
X003819Y001959D01*
X004569Y002709D01*
X004559Y002302D02*
X005758Y002302D01*
X005675Y002144D02*
X004400Y002144D01*
X004057Y001800D02*
X004057Y001800D01*
X001955Y004680D02*
X000435Y004680D01*
X000435Y004838D02*
X001955Y004838D01*
X001955Y004997D02*
X000435Y004997D01*
X000435Y005155D02*
X001955Y005155D01*
X001955Y005314D02*
X000435Y005314D01*
X000435Y005472D02*
X001955Y005472D01*
X001955Y005631D02*
X000435Y005631D01*
X000435Y005789D02*
X001955Y005789D01*
X001955Y005948D02*
X000435Y005948D01*
X000435Y006106D02*
X001955Y006106D01*
X001955Y006265D02*
X000435Y006265D01*
X000435Y006423D02*
X001955Y006423D01*
X001955Y006582D02*
X000435Y006582D01*
X000435Y006740D02*
X001955Y006740D01*
X001955Y006899D02*
X001512Y006899D01*
X001506Y006893D02*
X001673Y007060D01*
X001763Y007278D01*
X001763Y007514D01*
X001673Y007732D01*
X001506Y007899D01*
X001288Y007990D01*
X001051Y007990D01*
X000833Y007899D01*
X000666Y007732D01*
X000576Y007514D01*
X000576Y007278D01*
X000666Y007060D01*
X000833Y006893D01*
X001051Y006802D01*
X001288Y006802D01*
X001506Y006893D01*
X001671Y007057D02*
X001955Y007057D01*
X001955Y007216D02*
X001738Y007216D01*
X001763Y007374D02*
X001955Y007374D01*
X001955Y007533D02*
X001755Y007533D01*
X001690Y007691D02*
X001955Y007691D01*
X001955Y007850D02*
X001555Y007850D01*
X001955Y008008D02*
X000435Y008008D01*
X000435Y007850D02*
X000784Y007850D01*
X000649Y007691D02*
X000435Y007691D01*
X000435Y007533D02*
X000584Y007533D01*
X000576Y007374D02*
X000435Y007374D01*
X000435Y007216D02*
X000601Y007216D01*
X000668Y007057D02*
X000435Y007057D01*
X000435Y006899D02*
X000827Y006899D01*
X000435Y008167D02*
X001955Y008167D01*
X001955Y008325D02*
X000435Y008325D01*
X000435Y008484D02*
X001955Y008484D01*
X001955Y008642D02*
X000435Y008642D01*
X000435Y008801D02*
X002007Y008801D01*
X002166Y008959D02*
X000435Y008959D01*
X000435Y009118D02*
X002324Y009118D01*
X002483Y009276D02*
X000435Y009276D01*
X000435Y009435D02*
X004830Y009435D01*
X004733Y009593D02*
X004459Y009593D01*
X004572Y009752D02*
X004628Y009752D01*
X004653Y010227D02*
X004540Y010227D01*
X004382Y010386D02*
X004795Y010386D01*
X004830Y010544D02*
X003727Y010544D01*
X003735Y010703D02*
X004830Y010703D01*
X004830Y010861D02*
X003678Y010861D01*
X003643Y010386D02*
X003839Y010386D01*
X003681Y010227D02*
X002957Y010227D01*
X002684Y010069D02*
X003617Y010069D01*
X003607Y009910D02*
X000435Y009910D01*
X000435Y009752D02*
X003649Y009752D01*
X003762Y009593D02*
X000435Y009593D01*
X003173Y008776D02*
X003173Y008271D01*
X003173Y008271D01*
X003173Y008776D01*
X003173Y008642D02*
X003173Y008642D01*
X003173Y008484D02*
X003173Y008484D01*
X003173Y008325D02*
X003173Y008325D01*
X003516Y008642D02*
X004267Y008642D01*
X004152Y008484D02*
X003631Y008484D01*
X003676Y008325D02*
X004108Y008325D01*
X004116Y008167D02*
X003668Y008167D01*
X003606Y008008D02*
X004178Y008008D01*
X004331Y007850D02*
X003452Y007850D01*
X003495Y007691D02*
X004288Y007691D01*
X004151Y007533D02*
X003633Y007533D01*
X003698Y007374D02*
X004085Y007374D01*
X004085Y007216D02*
X003698Y007216D01*
X004890Y006740D02*
X007602Y006740D01*
X007761Y006582D02*
X004890Y006582D01*
X004941Y006423D02*
X010090Y006423D01*
X010248Y006265D02*
X005099Y006265D01*
X004980Y006899D02*
X007444Y006899D01*
X006255Y005948D02*
X012181Y005948D01*
X012095Y006106D02*
X006096Y006106D01*
X006413Y005789D02*
X017968Y005789D01*
X017968Y005631D02*
X006572Y005631D01*
X006689Y005472D02*
X017968Y005472D01*
X017968Y005314D02*
X011049Y005314D01*
X011212Y005155D02*
X017968Y005155D01*
X017968Y004997D02*
X011260Y004997D01*
X011244Y004838D02*
X017968Y004838D01*
X017968Y004680D02*
X011147Y004680D01*
X011140Y004521D02*
X017968Y004521D01*
X017968Y004363D02*
X011140Y004363D01*
X011140Y004204D02*
X012790Y004204D01*
X012771Y004185D02*
X012710Y004038D01*
X012710Y003879D01*
X012771Y003732D01*
X012862Y003642D01*
X012862Y002742D01*
X012802Y002718D01*
X012633Y002549D01*
X012542Y002328D01*
X012542Y002090D01*
X012633Y001869D01*
X012802Y001700D01*
X013023Y001609D01*
X013261Y001609D01*
X013482Y001700D01*
X013651Y001869D01*
X013742Y002090D01*
X013742Y002328D01*
X013651Y002549D01*
X013482Y002718D01*
X013422Y002742D01*
X013422Y003705D01*
X013450Y003732D01*
X013510Y003879D01*
X013510Y004038D01*
X013450Y004185D01*
X013337Y004298D01*
X013190Y004359D01*
X013031Y004359D01*
X012884Y004298D01*
X012771Y004185D01*
X012714Y004046D02*
X011140Y004046D01*
X011140Y003887D02*
X012710Y003887D01*
X012775Y003729D02*
X011140Y003729D01*
X011140Y003570D02*
X012862Y003570D01*
X012862Y003412D02*
X011140Y003412D01*
X011140Y003253D02*
X012862Y003253D01*
X012862Y003095D02*
X011140Y003095D01*
X011140Y002936D02*
X012862Y002936D01*
X012862Y002778D02*
X011140Y002778D01*
X011140Y002619D02*
X012704Y002619D01*
X012597Y002461D02*
X011449Y002461D01*
X011468Y002302D02*
X012542Y002302D01*
X012542Y002144D02*
X011468Y002144D01*
X011468Y001985D02*
X012585Y001985D01*
X012675Y001827D02*
X011468Y001827D01*
X011468Y001668D02*
X012879Y001668D01*
X013405Y001668D02*
X014568Y001668D01*
X014510Y001726D02*
X014628Y001609D01*
X015593Y001609D01*
X015710Y001726D01*
X015710Y002692D01*
X015593Y002809D01*
X015390Y002809D01*
X015390Y003658D01*
X015434Y003701D01*
X015495Y003848D01*
X015495Y004007D01*
X015434Y004154D01*
X015321Y004267D01*
X015174Y004328D01*
X015015Y004328D01*
X014868Y004267D01*
X014756Y004154D01*
X014695Y004007D01*
X014695Y003848D01*
X014756Y003701D01*
X014830Y003626D01*
X014830Y002809D01*
X014628Y002809D01*
X014510Y002692D01*
X014510Y001726D01*
X014510Y001827D02*
X013609Y001827D01*
X013699Y001985D02*
X014510Y001985D01*
X014510Y002144D02*
X013742Y002144D01*
X013742Y002302D02*
X014510Y002302D01*
X014510Y002461D02*
X013687Y002461D01*
X013580Y002619D02*
X014510Y002619D01*
X014597Y002778D02*
X013422Y002778D01*
X013422Y002936D02*
X014830Y002936D01*
X014830Y003095D02*
X013422Y003095D01*
X013422Y003253D02*
X014830Y003253D01*
X014830Y003412D02*
X013422Y003412D01*
X013422Y003570D02*
X014830Y003570D01*
X014744Y003729D02*
X013446Y003729D01*
X013510Y003887D02*
X014695Y003887D01*
X014711Y004046D02*
X013507Y004046D01*
X013431Y004204D02*
X014806Y004204D01*
X015095Y003928D02*
X015110Y003928D01*
X015110Y002209D01*
X015710Y002144D02*
X017968Y002144D01*
X017968Y002302D02*
X015710Y002302D01*
X015710Y002461D02*
X017968Y002461D01*
X017968Y002619D02*
X015710Y002619D01*
X015624Y002778D02*
X017968Y002778D01*
X017968Y002936D02*
X015390Y002936D01*
X015390Y003095D02*
X017968Y003095D01*
X017968Y003253D02*
X015390Y003253D01*
X015390Y003412D02*
X017968Y003412D01*
X017968Y003570D02*
X015390Y003570D01*
X015446Y003729D02*
X017968Y003729D01*
X017968Y003887D02*
X015495Y003887D01*
X015479Y004046D02*
X017968Y004046D01*
X017968Y004204D02*
X015384Y004204D01*
X013142Y003959D02*
X013142Y002209D01*
X011468Y001510D02*
X016758Y001510D01*
X016718Y001412D02*
X016718Y001175D01*
X016808Y000957D01*
X016975Y000790D01*
X017193Y000700D01*
X017429Y000700D01*
X017648Y000790D01*
X017815Y000957D01*
X017905Y001175D01*
X017905Y001412D01*
X017815Y001630D01*
X017648Y001797D01*
X017429Y001887D01*
X017193Y001887D01*
X016975Y001797D01*
X016808Y001630D01*
X016718Y001412D01*
X016718Y001351D02*
X000435Y001351D01*
X000435Y001193D02*
X016718Y001193D01*
X016776Y001034D02*
X000435Y001034D01*
X000435Y000876D02*
X016889Y000876D01*
X017151Y000717D02*
X000435Y000717D01*
X000435Y000559D02*
X017968Y000559D01*
X017968Y000717D02*
X017472Y000717D01*
X017733Y000876D02*
X017968Y000876D01*
X017968Y001034D02*
X017847Y001034D01*
X017905Y001193D02*
X017968Y001193D01*
X017968Y001351D02*
X017905Y001351D01*
X017864Y001510D02*
X017968Y001510D01*
X017968Y001668D02*
X017776Y001668D01*
X017968Y001827D02*
X017575Y001827D01*
X017968Y001985D02*
X015710Y001985D01*
X015710Y001827D02*
X017048Y001827D01*
X016847Y001668D02*
X015653Y001668D01*
X017968Y000400D02*
X000435Y000400D01*
X009626Y007678D02*
X010579Y007678D01*
X010610Y007709D01*
X010104Y008008D02*
X009861Y008008D01*
X010917Y007209D02*
X011125Y007001D01*
X011319Y007195D01*
X011110Y007403D01*
X010917Y007209D01*
X010924Y007216D02*
X011297Y007216D01*
X011181Y007057D02*
X011068Y007057D01*
X011082Y007374D02*
X011139Y007374D01*
X011924Y007216D02*
X012205Y007216D01*
X012205Y007374D02*
X012082Y007374D01*
X012040Y007057D02*
X012205Y007057D01*
X012205Y006899D02*
X012160Y006899D01*
X012160Y006740D02*
X012205Y006740D01*
X012205Y006582D02*
X012160Y006582D01*
X012141Y006423D02*
X012103Y006423D01*
X012085Y006265D02*
X011944Y006265D01*
X011630Y006265D02*
X011590Y006265D01*
X011590Y006423D02*
X011630Y006423D01*
X011630Y006582D02*
X011590Y006582D01*
X011277Y006265D02*
X010973Y006265D01*
X010860Y004959D02*
X010860Y001966D01*
X010868Y001959D01*
X013110Y003959D02*
X013142Y003959D01*
X012790Y005948D02*
X017968Y005948D01*
X017968Y006106D02*
X012876Y006106D01*
X012885Y006265D02*
X017968Y006265D01*
X017968Y006423D02*
X012830Y006423D01*
X012765Y006582D02*
X017968Y006582D01*
X017968Y006740D02*
X012765Y006740D01*
X012765Y006899D02*
X017968Y006899D01*
X017968Y007057D02*
X016587Y007057D01*
X016610Y007074D02*
X016666Y007130D01*
X016713Y007194D01*
X016749Y007265D01*
X016773Y007341D01*
X016786Y007419D01*
X016786Y007459D01*
X016281Y007459D01*
X016281Y007459D01*
X016281Y006954D01*
X016321Y006954D01*
X016399Y006966D01*
X016475Y006991D01*
X016545Y007027D01*
X016610Y007074D01*
X016724Y007216D02*
X017968Y007216D01*
X017968Y007374D02*
X016779Y007374D01*
X016780Y007533D02*
X017968Y007533D01*
X017968Y007691D02*
X016729Y007691D01*
X016602Y007850D02*
X017968Y007850D01*
X017968Y008008D02*
X016565Y008008D01*
X016728Y008167D02*
X017968Y008167D01*
X017968Y008325D02*
X016794Y008325D01*
X016806Y008484D02*
X017968Y008484D01*
X017968Y008642D02*
X016773Y008642D01*
X016723Y008801D02*
X017968Y008801D01*
X017968Y008959D02*
X016723Y008959D01*
X016723Y009118D02*
X017968Y009118D01*
X017968Y009276D02*
X016723Y009276D01*
X016723Y009435D02*
X017968Y009435D01*
X017968Y009593D02*
X016723Y009593D01*
X016723Y009752D02*
X017968Y009752D01*
X017968Y009910D02*
X016723Y009910D01*
X016723Y010069D02*
X017968Y010069D01*
X017968Y010227D02*
X016968Y010227D01*
X016968Y010386D02*
X017968Y010386D01*
X017968Y010544D02*
X016968Y010544D01*
X016968Y010703D02*
X017968Y010703D01*
X017968Y010861D02*
X016968Y010861D01*
X016954Y011020D02*
X017968Y011020D01*
X017968Y011178D02*
X016725Y011178D01*
X016877Y011337D02*
X017968Y011337D01*
X017968Y011495D02*
X016938Y011495D01*
X016948Y011598D02*
X016948Y011638D01*
X016936Y011716D01*
X016911Y011792D01*
X016875Y011863D01*
X016828Y011927D01*
X016772Y011983D01*
X016708Y012030D01*
X016637Y012066D01*
X016561Y012091D01*
X016483Y012103D01*
X016443Y012103D01*
X016403Y012103D01*
X016325Y012091D01*
X016249Y012066D01*
X016178Y012030D01*
X016114Y011983D01*
X016058Y011927D01*
X016011Y011863D01*
X015975Y011792D01*
X015951Y011716D01*
X015938Y011638D01*
X015938Y011598D01*
X016443Y011598D01*
X016443Y011598D01*
X016443Y011598D01*
X016443Y012103D01*
X016443Y011598D01*
X016443Y011598D01*
X016948Y011598D01*
X016946Y011654D02*
X017968Y011654D01*
X017968Y011812D02*
X016901Y011812D01*
X016785Y011971D02*
X017968Y011971D01*
X017968Y012129D02*
X015869Y012129D01*
X015869Y011971D02*
X016102Y011971D01*
X015986Y011812D02*
X015869Y011812D01*
X015869Y011654D02*
X015941Y011654D01*
X015948Y011495D02*
X015869Y011495D01*
X015869Y011337D02*
X016009Y011337D01*
X015992Y011178D02*
X016162Y011178D01*
X016443Y011654D02*
X016443Y011654D01*
X016443Y011812D02*
X016443Y011812D01*
X016443Y011971D02*
X016443Y011971D01*
X015869Y012288D02*
X017968Y012288D01*
X017968Y012446D02*
X015966Y012446D01*
X016315Y012605D02*
X017968Y012605D01*
X017968Y012763D02*
X016469Y012763D01*
X016534Y012922D02*
X017004Y012922D01*
X017046Y012905D02*
X017282Y012905D01*
X017500Y012995D01*
X017667Y013162D01*
X017757Y013380D01*
X017757Y013616D01*
X017667Y013835D01*
X017500Y014002D01*
X017282Y014092D01*
X017046Y014092D01*
X016827Y014002D01*
X016660Y013835D01*
X016570Y013616D01*
X016570Y013380D01*
X016660Y013162D01*
X016827Y012995D01*
X017046Y012905D01*
X016742Y013080D02*
X016553Y013080D01*
X016553Y013239D02*
X016628Y013239D01*
X016570Y013397D02*
X016553Y013397D01*
X016553Y013556D02*
X016570Y013556D01*
X016553Y013714D02*
X016611Y013714D01*
X016553Y013873D02*
X016699Y013873D01*
X016512Y014031D02*
X016899Y014031D01*
X016418Y014190D02*
X017968Y014190D01*
X017968Y014348D02*
X016194Y014348D01*
X015771Y014348D02*
X015133Y014348D01*
X015013Y014348D02*
X014953Y014348D01*
X014832Y014348D02*
X000435Y014348D01*
X000435Y014190D02*
X001671Y014190D01*
X001703Y014203D02*
X002670Y014203D01*
X002879Y014116D01*
X003039Y013956D01*
X003057Y013913D01*
X004021Y013913D01*
X004093Y013985D01*
X004240Y014046D01*
X004399Y014046D01*
X004546Y013985D01*
X004658Y013873D01*
X004434Y014031D02*
X014473Y014031D01*
X014576Y014190D02*
X002701Y014190D01*
X002964Y014031D02*
X004205Y014031D01*
X003226Y012922D02*
X003054Y012922D01*
X003503Y012633D02*
X003532Y012662D01*
X003503Y012633D02*
X002186Y012633D01*
X001458Y013080D02*
X000435Y013080D01*
X000435Y012922D02*
X001319Y012922D01*
X001253Y012763D02*
X000435Y012763D01*
X000435Y012605D02*
X001246Y012605D01*
X001277Y012446D02*
X000435Y012446D01*
X000435Y012288D02*
X001355Y012288D01*
X001404Y013239D02*
X000435Y013239D01*
X000435Y013397D02*
X001297Y013397D01*
X001246Y013556D02*
X000435Y013556D01*
X000435Y013714D02*
X001246Y013714D01*
X001299Y013873D02*
X000435Y013873D01*
X000435Y014031D02*
X001409Y014031D01*
X004568Y011495D02*
X004585Y011495D01*
X004585Y011337D02*
X004453Y011337D01*
X004110Y010386D02*
X004110Y010386D01*
X004110Y010227D02*
X004110Y010227D01*
X004110Y010069D02*
X004110Y010069D01*
X004110Y009910D02*
X004110Y009910D01*
X004110Y009752D02*
X004110Y009752D01*
X004110Y009593D02*
X004110Y009593D01*
X004610Y008642D02*
X004610Y008642D01*
X004610Y008484D02*
X004610Y008484D01*
X004610Y008325D02*
X004610Y008325D01*
X010849Y009276D02*
X011372Y009276D01*
X011213Y009118D02*
X011008Y009118D01*
X011849Y009276D02*
X012080Y009276D01*
X012080Y009118D02*
X012008Y009118D01*
X011959Y008167D02*
X015833Y008167D01*
X015776Y007459D02*
X015776Y007419D01*
X015788Y007341D01*
X015813Y007265D01*
X015849Y007194D01*
X015896Y007130D01*
X015952Y007074D01*
X016016Y007027D01*
X016087Y006991D01*
X016163Y006966D01*
X016241Y006954D01*
X016281Y006954D01*
X016281Y007459D01*
X016281Y007459D01*
X016281Y007459D01*
X015776Y007459D01*
X015783Y007374D02*
X012765Y007374D01*
X012765Y007216D02*
X015838Y007216D01*
X015974Y007057D02*
X012765Y007057D01*
X012485Y007532D02*
X012485Y006209D01*
X013360Y006209D02*
X013360Y006146D01*
X016281Y007057D02*
X016281Y007057D01*
X016281Y007216D02*
X016281Y007216D01*
X016281Y007374D02*
X016281Y007374D01*
X015344Y012605D02*
X015264Y012605D01*
X015433Y012763D02*
X015491Y012763D01*
X015013Y012763D02*
X014953Y012763D01*
X014953Y012605D02*
X015013Y012605D01*
X015013Y012922D02*
X014953Y012922D01*
X014953Y013080D02*
X015013Y013080D01*
X015013Y013239D02*
X014953Y013239D01*
X014953Y013397D02*
X015013Y013397D01*
X015013Y013556D02*
X014953Y013556D01*
X014953Y013714D02*
X015013Y013714D01*
X015013Y013873D02*
X014953Y013873D01*
X014953Y014031D02*
X015013Y014031D01*
X015013Y014190D02*
X014953Y014190D01*
X015389Y014190D02*
X015547Y014190D01*
X014433Y013556D02*
X012068Y013556D01*
X012215Y013397D02*
X014433Y013397D01*
X014433Y013239D02*
X012260Y013239D01*
X012240Y013080D02*
X014433Y013080D01*
X014455Y012922D02*
X012139Y012922D01*
X011653Y013556D02*
X010813Y013556D01*
X017324Y012922D02*
X017968Y012922D01*
X017968Y013080D02*
X017585Y013080D01*
X017699Y013239D02*
X017968Y013239D01*
X017968Y013397D02*
X017757Y013397D01*
X017757Y013556D02*
X017968Y013556D01*
X017968Y013714D02*
X017717Y013714D01*
X017629Y013873D02*
X017968Y013873D01*
X017968Y014031D02*
X017428Y014031D01*
D19*
X011860Y013209D03*
X007610Y009815D03*
X008160Y008406D03*
X009626Y007678D03*
X010720Y009631D03*
X012485Y006209D03*
X013360Y006146D03*
X010860Y004959D03*
X013110Y003959D03*
X015095Y003928D03*
X003532Y012662D03*
X003236Y011628D03*
X003335Y010644D03*
X004319Y013646D03*
M02*
