G75*
G70*
%OFA0B0*%
%FSLAX24Y24*%
%IPPOS*%
%LPD*%
%AMOC8*
5,1,8,0,0,1.08239X$1,22.5*
%
%ADD10C,0.0000*%
%ADD11C,0.0030*%
%ADD12C,0.0060*%
%ADD13C,0.0010*%
%ADD14C,0.0080*%
%ADD15C,0.0020*%
%ADD16C,0.0040*%
%ADD17C,0.0050*%
%ADD18R,0.0300X0.4200*%
%ADD19R,0.0200X0.0750*%
%ADD20R,0.0200X0.0300*%
D10*
X000235Y000146D02*
X000235Y014580D01*
X018168Y014580D01*
X018168Y000146D01*
X000235Y000146D01*
X000776Y007396D02*
X000778Y007435D01*
X000784Y007474D01*
X000794Y007512D01*
X000807Y007549D01*
X000824Y007584D01*
X000844Y007618D01*
X000868Y007649D01*
X000895Y007678D01*
X000924Y007704D01*
X000956Y007727D01*
X000990Y007747D01*
X001026Y007763D01*
X001063Y007775D01*
X001102Y007784D01*
X001141Y007789D01*
X001180Y007790D01*
X001219Y007787D01*
X001258Y007780D01*
X001295Y007769D01*
X001332Y007755D01*
X001367Y007737D01*
X001400Y007716D01*
X001431Y007691D01*
X001459Y007664D01*
X001484Y007634D01*
X001506Y007601D01*
X001525Y007567D01*
X001540Y007531D01*
X001552Y007493D01*
X001560Y007455D01*
X001564Y007416D01*
X001564Y007376D01*
X001560Y007337D01*
X001552Y007299D01*
X001540Y007261D01*
X001525Y007225D01*
X001506Y007191D01*
X001484Y007158D01*
X001459Y007128D01*
X001431Y007101D01*
X001400Y007076D01*
X001367Y007055D01*
X001332Y007037D01*
X001295Y007023D01*
X001258Y007012D01*
X001219Y007005D01*
X001180Y007002D01*
X001141Y007003D01*
X001102Y007008D01*
X001063Y007017D01*
X001026Y007029D01*
X000990Y007045D01*
X000956Y007065D01*
X000924Y007088D01*
X000895Y007114D01*
X000868Y007143D01*
X000844Y007174D01*
X000824Y007208D01*
X000807Y007243D01*
X000794Y007280D01*
X000784Y007318D01*
X000778Y007357D01*
X000776Y007396D01*
X016770Y013498D02*
X016772Y013537D01*
X016778Y013576D01*
X016788Y013614D01*
X016801Y013651D01*
X016818Y013686D01*
X016838Y013720D01*
X016862Y013751D01*
X016889Y013780D01*
X016918Y013806D01*
X016950Y013829D01*
X016984Y013849D01*
X017020Y013865D01*
X017057Y013877D01*
X017096Y013886D01*
X017135Y013891D01*
X017174Y013892D01*
X017213Y013889D01*
X017252Y013882D01*
X017289Y013871D01*
X017326Y013857D01*
X017361Y013839D01*
X017394Y013818D01*
X017425Y013793D01*
X017453Y013766D01*
X017478Y013736D01*
X017500Y013703D01*
X017519Y013669D01*
X017534Y013633D01*
X017546Y013595D01*
X017554Y013557D01*
X017558Y013518D01*
X017558Y013478D01*
X017554Y013439D01*
X017546Y013401D01*
X017534Y013363D01*
X017519Y013327D01*
X017500Y013293D01*
X017478Y013260D01*
X017453Y013230D01*
X017425Y013203D01*
X017394Y013178D01*
X017361Y013157D01*
X017326Y013139D01*
X017289Y013125D01*
X017252Y013114D01*
X017213Y013107D01*
X017174Y013104D01*
X017135Y013105D01*
X017096Y013110D01*
X017057Y013119D01*
X017020Y013131D01*
X016984Y013147D01*
X016950Y013167D01*
X016918Y013190D01*
X016889Y013216D01*
X016862Y013245D01*
X016838Y013276D01*
X016818Y013310D01*
X016801Y013345D01*
X016788Y013382D01*
X016778Y013420D01*
X016772Y013459D01*
X016770Y013498D01*
X016917Y001294D02*
X016919Y001333D01*
X016925Y001372D01*
X016935Y001410D01*
X016948Y001447D01*
X016965Y001482D01*
X016985Y001516D01*
X017009Y001547D01*
X017036Y001576D01*
X017065Y001602D01*
X017097Y001625D01*
X017131Y001645D01*
X017167Y001661D01*
X017204Y001673D01*
X017243Y001682D01*
X017282Y001687D01*
X017321Y001688D01*
X017360Y001685D01*
X017399Y001678D01*
X017436Y001667D01*
X017473Y001653D01*
X017508Y001635D01*
X017541Y001614D01*
X017572Y001589D01*
X017600Y001562D01*
X017625Y001532D01*
X017647Y001499D01*
X017666Y001465D01*
X017681Y001429D01*
X017693Y001391D01*
X017701Y001353D01*
X017705Y001314D01*
X017705Y001274D01*
X017701Y001235D01*
X017693Y001197D01*
X017681Y001159D01*
X017666Y001123D01*
X017647Y001089D01*
X017625Y001056D01*
X017600Y001026D01*
X017572Y000999D01*
X017541Y000974D01*
X017508Y000953D01*
X017473Y000935D01*
X017436Y000921D01*
X017399Y000910D01*
X017360Y000903D01*
X017321Y000900D01*
X017282Y000901D01*
X017243Y000906D01*
X017204Y000915D01*
X017167Y000927D01*
X017131Y000943D01*
X017097Y000963D01*
X017065Y000986D01*
X017036Y001012D01*
X017009Y001041D01*
X016985Y001072D01*
X016965Y001106D01*
X016948Y001141D01*
X016935Y001178D01*
X016925Y001216D01*
X016919Y001255D01*
X016917Y001294D01*
D11*
X017037Y003179D02*
X017284Y003179D01*
X017345Y003240D01*
X017345Y003364D01*
X017284Y003426D01*
X017284Y003547D02*
X017160Y003547D01*
X017099Y003609D01*
X017099Y003732D01*
X017160Y003794D01*
X017284Y003794D01*
X017345Y003732D01*
X017345Y003609D01*
X017284Y003547D01*
X017037Y003426D02*
X016975Y003364D01*
X016975Y003240D01*
X017037Y003179D01*
X017160Y003915D02*
X017160Y004039D01*
X017160Y004161D02*
X017160Y004284D01*
X017160Y004406D02*
X017099Y004468D01*
X017099Y004592D01*
X017160Y004653D01*
X017222Y004653D01*
X017222Y004406D01*
X017284Y004406D02*
X017160Y004406D01*
X017284Y004406D02*
X017345Y004468D01*
X017345Y004592D01*
X017284Y004775D02*
X017160Y004775D01*
X017099Y004836D01*
X017099Y004960D01*
X017160Y005022D01*
X017222Y005022D01*
X017222Y004775D01*
X017284Y004775D02*
X017345Y004836D01*
X017345Y004960D01*
X017345Y005143D02*
X016975Y005143D01*
X016975Y005328D01*
X017037Y005390D01*
X017160Y005390D01*
X017222Y005328D01*
X017222Y005143D01*
X017345Y005511D02*
X017345Y005635D01*
X017345Y005573D02*
X016975Y005573D01*
X016975Y005511D02*
X016975Y005635D01*
X016975Y005757D02*
X016975Y005942D01*
X017037Y006004D01*
X017284Y006004D01*
X017345Y005942D01*
X017345Y005757D01*
X016975Y005757D01*
X017099Y006493D02*
X017345Y006617D01*
X017099Y006740D01*
X017099Y006862D02*
X016975Y006985D01*
X017345Y006985D01*
X017345Y006862D02*
X017345Y007109D01*
X017345Y007230D02*
X017345Y007292D01*
X017284Y007292D01*
X017284Y007230D01*
X017345Y007230D01*
X017284Y007414D02*
X017037Y007414D01*
X016975Y007476D01*
X016975Y007599D01*
X017037Y007661D01*
X017284Y007414D01*
X017345Y007476D01*
X017345Y007599D01*
X017284Y007661D01*
X017037Y007661D01*
X015782Y004483D02*
X015782Y004236D01*
X015659Y004359D02*
X015906Y004359D01*
X015968Y003991D02*
X015597Y003991D01*
X015597Y003868D02*
X015597Y004114D01*
X016975Y004039D02*
X017037Y003977D01*
X017345Y003977D01*
X017345Y004223D02*
X017037Y004223D01*
X016975Y004284D01*
X012523Y004040D02*
X012152Y004040D01*
X012152Y003917D02*
X012152Y004164D01*
X012337Y004285D02*
X012337Y004532D01*
X011440Y004556D02*
X011317Y004432D01*
X011317Y004494D02*
X011317Y004309D01*
X011317Y004188D02*
X011378Y004188D01*
X011440Y004126D01*
X011440Y004002D01*
X011378Y003941D01*
X011378Y003819D02*
X011317Y003819D01*
X011255Y003757D01*
X011255Y003634D01*
X011193Y003572D01*
X011131Y003572D01*
X011070Y003634D01*
X011070Y003757D01*
X011131Y003819D01*
X011131Y003941D02*
X011193Y003941D01*
X011255Y004002D01*
X011255Y004126D01*
X011317Y004188D01*
X011440Y004309D02*
X011070Y004309D01*
X011070Y004494D01*
X011131Y004556D01*
X011255Y004556D01*
X011317Y004494D01*
X011131Y004188D02*
X011070Y004126D01*
X011070Y004002D01*
X011131Y003941D01*
X011378Y003819D02*
X011440Y003757D01*
X011440Y003634D01*
X011378Y003572D01*
X008143Y003647D02*
X008019Y003770D01*
X007772Y003770D01*
X007896Y003891D02*
X007896Y003953D01*
X008143Y003953D01*
X008143Y003891D02*
X008143Y004015D01*
X008143Y004137D02*
X007896Y004137D01*
X007896Y004322D01*
X007958Y004384D01*
X008143Y004384D01*
X007772Y003953D02*
X007711Y003953D01*
X008019Y003523D02*
X008143Y003647D01*
X008019Y003523D02*
X007772Y003523D01*
X001106Y010461D02*
X000913Y010461D01*
X000961Y010413D02*
X000961Y010510D01*
X000961Y010609D02*
X001155Y010803D01*
X001155Y010609D02*
X000961Y010803D01*
X001155Y010510D02*
X001106Y010461D01*
X001058Y011348D02*
X000961Y011445D01*
X000961Y011493D01*
X000961Y011593D02*
X001155Y011787D01*
X001155Y011593D02*
X000961Y011787D01*
X000961Y011348D02*
X001155Y011348D01*
X001155Y012283D02*
X001155Y012428D01*
X001106Y012476D01*
X001058Y012428D01*
X001058Y012331D01*
X001009Y012283D01*
X000961Y012331D01*
X000961Y012476D01*
X001009Y012578D02*
X001106Y012578D01*
X001155Y012626D01*
X001155Y012771D01*
X001155Y012872D02*
X001155Y012969D01*
X001155Y012921D02*
X000864Y012921D01*
X000864Y012872D01*
X000961Y012771D02*
X000961Y012626D01*
X001009Y012578D01*
X000960Y013218D02*
X000912Y013266D01*
X000912Y013412D01*
X001009Y013363D02*
X001009Y013266D01*
X000960Y013218D01*
X001105Y013218D02*
X001105Y013363D01*
X001057Y013412D01*
X001009Y013363D01*
X001057Y013513D02*
X000960Y013513D01*
X000912Y013561D01*
X000912Y013706D01*
X000815Y013706D02*
X001105Y013706D01*
X001105Y013561D01*
X001057Y013513D01*
X001057Y013807D02*
X001009Y013856D01*
X001009Y014001D01*
X000960Y014001D02*
X001105Y014001D01*
X001105Y013856D01*
X001057Y013807D01*
X000912Y013856D02*
X000912Y013952D01*
X000960Y014001D01*
X011587Y013895D02*
X011587Y013710D01*
X011957Y013710D01*
X011834Y013710D02*
X011834Y013895D01*
X011772Y013957D01*
X011649Y013957D01*
X011587Y013895D01*
X014154Y012438D02*
X014154Y012191D01*
X014216Y012129D01*
X014340Y012129D01*
X014401Y012191D01*
X014401Y012314D01*
X014278Y012314D01*
X014401Y012438D02*
X014340Y012499D01*
X014216Y012499D01*
X014154Y012438D01*
X014523Y012499D02*
X014523Y012129D01*
X014770Y012129D02*
X014770Y012499D01*
X014891Y012499D02*
X015076Y012499D01*
X015138Y012438D01*
X015138Y012191D01*
X015076Y012129D01*
X014891Y012129D01*
X014891Y012499D01*
X014523Y012499D02*
X014770Y012129D01*
X015385Y012363D02*
X015632Y012363D01*
X015753Y012363D02*
X015876Y012425D01*
X015938Y012425D01*
X016000Y012363D01*
X016000Y012240D01*
X015938Y012178D01*
X015815Y012178D01*
X015753Y012240D01*
X015753Y012363D02*
X015753Y012549D01*
X016000Y012549D01*
X016121Y012549D02*
X016121Y012302D01*
X016245Y012178D01*
X016368Y012302D01*
X016368Y012549D01*
X015508Y012487D02*
X015508Y012240D01*
D12*
X012110Y008959D02*
X011860Y009209D01*
X010360Y009209D01*
X010110Y008959D01*
X010110Y008459D01*
X010360Y008209D01*
X011860Y008209D01*
X012110Y007959D01*
X012110Y007459D01*
X011860Y007209D01*
X012110Y006959D01*
X012110Y006459D01*
X011860Y006209D01*
X010360Y006209D01*
X010110Y006459D01*
X010110Y006959D01*
X010360Y007209D01*
X011860Y007209D01*
X011860Y008209D02*
X012110Y008459D01*
X012110Y008959D01*
X010360Y008209D02*
X010110Y007959D01*
X010110Y007459D01*
X010360Y007209D01*
X008990Y007829D02*
X006231Y007829D01*
X006231Y010449D01*
X006370Y010589D01*
X008990Y010589D01*
X008990Y007829D01*
X006389Y010289D02*
X006391Y010312D01*
X006397Y010335D01*
X006406Y010356D01*
X006419Y010376D01*
X006435Y010393D01*
X006453Y010407D01*
X006473Y010418D01*
X006495Y010426D01*
X006518Y010430D01*
X006542Y010430D01*
X006565Y010426D01*
X006587Y010418D01*
X006607Y010407D01*
X006625Y010393D01*
X006641Y010376D01*
X006654Y010356D01*
X006663Y010335D01*
X006669Y010312D01*
X006671Y010289D01*
X006669Y010266D01*
X006663Y010243D01*
X006654Y010222D01*
X006641Y010202D01*
X006625Y010185D01*
X006607Y010171D01*
X006587Y010160D01*
X006565Y010152D01*
X006542Y010148D01*
X006518Y010148D01*
X006495Y010152D01*
X006473Y010160D01*
X006453Y010171D01*
X006435Y010185D01*
X006419Y010202D01*
X006406Y010222D01*
X006397Y010243D01*
X006391Y010266D01*
X006389Y010289D01*
X015245Y005751D02*
X015245Y005561D01*
X015485Y005511D01*
X015555Y005331D02*
X015425Y005141D01*
X015565Y005001D01*
X015755Y005131D01*
X015945Y005051D02*
X015985Y004821D01*
X016185Y004821D01*
X016225Y005041D01*
X016425Y005121D02*
X016605Y005001D01*
X016745Y005141D01*
X016625Y005321D01*
X016665Y005391D01*
X016325Y005541D01*
X016325Y005781D02*
X016665Y005921D01*
X016625Y006001D01*
X016745Y006181D01*
X016605Y006321D01*
X016425Y006191D01*
X016225Y006271D02*
X016185Y006491D01*
X015985Y006491D01*
X015945Y006271D01*
X015755Y006181D02*
X015565Y006321D01*
X015425Y006181D01*
X015555Y005981D01*
X015485Y005801D02*
X015245Y005751D01*
X016325Y005781D02*
X016309Y005809D01*
X016290Y005836D01*
X016268Y005859D01*
X016243Y005880D01*
X016215Y005898D01*
X016186Y005913D01*
X016155Y005923D01*
X016124Y005931D01*
X016091Y005934D01*
X016059Y005933D01*
X016026Y005929D01*
X015995Y005920D01*
X015965Y005908D01*
X015936Y005893D01*
X015909Y005874D01*
X015885Y005852D01*
X015864Y005828D01*
X015845Y005801D01*
X015830Y005772D01*
X015819Y005741D01*
X015811Y005710D01*
X015807Y005677D01*
X015807Y005645D01*
X015811Y005612D01*
X015819Y005581D01*
X015830Y005550D01*
X015845Y005521D01*
X015864Y005494D01*
X015885Y005470D01*
X015909Y005448D01*
X015936Y005429D01*
X015965Y005414D01*
X015995Y005402D01*
X016026Y005393D01*
X016059Y005389D01*
X016091Y005388D01*
X016124Y005391D01*
X016155Y005399D01*
X016186Y005409D01*
X016215Y005424D01*
X016243Y005442D01*
X016268Y005463D01*
X016290Y005486D01*
X016309Y005513D01*
X016325Y005541D01*
X015559Y005333D02*
X015536Y005375D01*
X015517Y005418D01*
X015500Y005463D01*
X015488Y005509D01*
X016241Y005043D02*
X016288Y005058D01*
X016334Y005076D01*
X016378Y005098D01*
X016420Y005123D01*
X015943Y005049D02*
X015903Y005060D01*
X015864Y005074D01*
X015827Y005090D01*
X015790Y005109D01*
X015755Y005130D01*
X016224Y006270D02*
X016266Y006260D01*
X016307Y006247D01*
X016347Y006231D01*
X016386Y006212D01*
X016423Y006190D01*
X015944Y006273D02*
X015904Y006261D01*
X015865Y006246D01*
X015827Y006228D01*
X015791Y006208D01*
X015756Y006186D01*
X015555Y005980D02*
X015532Y005937D01*
X015512Y005893D01*
X015496Y005847D01*
X015484Y005801D01*
D13*
X016811Y007969D02*
X016911Y007969D01*
X016936Y007994D01*
X016936Y008044D01*
X016911Y008069D01*
X016911Y008117D02*
X016936Y008142D01*
X016936Y008192D01*
X016911Y008217D01*
X016886Y008217D01*
X016861Y008192D01*
X016861Y008167D01*
X016861Y008192D02*
X016836Y008217D01*
X016811Y008217D01*
X016786Y008192D01*
X016786Y008142D01*
X016811Y008117D01*
X016811Y008069D02*
X016786Y008044D01*
X016786Y007994D01*
X016811Y007969D01*
X017073Y011159D02*
X017048Y011184D01*
X017048Y011234D01*
X017073Y011259D01*
X017123Y011306D02*
X017123Y011381D01*
X017148Y011406D01*
X017173Y011406D01*
X017198Y011381D01*
X017198Y011331D01*
X017173Y011306D01*
X017123Y011306D01*
X017073Y011356D01*
X017048Y011406D01*
X017173Y011259D02*
X017198Y011234D01*
X017198Y011184D01*
X017173Y011159D01*
X017073Y011159D01*
X007448Y014176D02*
X007423Y014151D01*
X007373Y014151D01*
X007348Y014176D01*
X007348Y014226D02*
X007398Y014251D01*
X007423Y014251D01*
X007448Y014226D01*
X007448Y014176D01*
X007348Y014226D02*
X007348Y014302D01*
X007448Y014302D01*
X007300Y014277D02*
X007300Y014226D01*
X007275Y014201D01*
X007200Y014201D01*
X007200Y014151D02*
X007200Y014302D01*
X007275Y014302D01*
X007300Y014277D01*
X007153Y014302D02*
X007103Y014302D01*
X007128Y014302D02*
X007128Y014176D01*
X007103Y014151D01*
X007078Y014151D01*
X007053Y014176D01*
X004488Y012464D02*
X004413Y012389D01*
X004513Y012389D01*
X004488Y012314D02*
X004488Y012464D01*
X004366Y012439D02*
X004341Y012464D01*
X004291Y012464D01*
X004265Y012439D01*
X004265Y012339D01*
X004291Y012314D01*
X004341Y012314D01*
X004366Y012339D01*
X006365Y011364D02*
X006365Y011239D01*
X006391Y011214D01*
X006441Y011214D01*
X006466Y011239D01*
X006466Y011364D01*
X006513Y011314D02*
X006563Y011364D01*
X006563Y011214D01*
X006513Y011214D02*
X006613Y011214D01*
X004868Y009454D02*
X004768Y009454D01*
X004768Y009379D01*
X004818Y009404D01*
X004843Y009404D01*
X004868Y009379D01*
X004868Y009329D01*
X004843Y009304D01*
X004793Y009304D01*
X004768Y009329D01*
X004721Y009329D02*
X004696Y009304D01*
X004646Y009304D01*
X004621Y009329D01*
X004621Y009429D01*
X004646Y009454D01*
X004696Y009454D01*
X004721Y009429D01*
X007786Y000954D02*
X007836Y000954D01*
X007811Y000954D02*
X007811Y000829D01*
X007786Y000804D01*
X007761Y000804D01*
X007736Y000829D01*
X007883Y000854D02*
X007958Y000854D01*
X007983Y000879D01*
X007983Y000929D01*
X007958Y000954D01*
X007883Y000954D01*
X007883Y000804D01*
X008031Y000829D02*
X008056Y000804D01*
X008106Y000804D01*
X008131Y000829D01*
X008131Y000854D01*
X008106Y000879D01*
X008081Y000879D01*
X008106Y000879D02*
X008131Y000904D01*
X008131Y000929D01*
X008106Y000954D01*
X008056Y000954D01*
X008031Y000929D01*
X010861Y000829D02*
X010886Y000804D01*
X010911Y000804D01*
X010936Y000829D01*
X010936Y000954D01*
X010911Y000954D02*
X010961Y000954D01*
X011008Y000954D02*
X011008Y000804D01*
X011008Y000854D02*
X011083Y000854D01*
X011108Y000879D01*
X011108Y000929D01*
X011083Y000954D01*
X011008Y000954D01*
X011156Y000879D02*
X011256Y000879D01*
X011231Y000804D02*
X011231Y000954D01*
X011156Y000879D01*
X015174Y001079D02*
X015199Y001054D01*
X015224Y001054D01*
X015249Y001079D01*
X015249Y001204D01*
X015224Y001204D02*
X015274Y001204D01*
X015321Y001204D02*
X015396Y001204D01*
X015421Y001179D01*
X015421Y001129D01*
X015396Y001104D01*
X015321Y001104D01*
X015321Y001054D02*
X015321Y001204D01*
X015468Y001154D02*
X015518Y001204D01*
X015518Y001054D01*
X015468Y001054D02*
X015568Y001054D01*
D14*
X016331Y000555D02*
X016331Y003114D01*
X011922Y003114D01*
X011922Y003508D01*
X016331Y003508D01*
X016331Y003114D01*
X016331Y000555D02*
X011922Y000555D01*
X011922Y003114D01*
X011487Y003061D02*
X008731Y003061D01*
X008731Y003376D01*
X011487Y003376D01*
X011487Y003061D01*
X011487Y000620D01*
X008731Y000620D01*
X008731Y003061D01*
X008362Y003061D02*
X008362Y003376D01*
X005606Y003376D01*
X005606Y003061D01*
X008362Y003061D01*
X008362Y000620D01*
X005606Y000620D01*
X005606Y003061D01*
X006773Y003809D02*
X004073Y003809D01*
X004014Y003811D01*
X003956Y003817D01*
X003897Y003826D01*
X003840Y003840D01*
X003784Y003857D01*
X003729Y003878D01*
X003675Y003902D01*
X003623Y003930D01*
X003573Y003961D01*
X003525Y003995D01*
X003480Y004032D01*
X003437Y004073D01*
X003396Y004116D01*
X003359Y004161D01*
X003325Y004209D01*
X003294Y004259D01*
X003266Y004311D01*
X003242Y004365D01*
X003221Y004420D01*
X003204Y004476D01*
X003190Y004533D01*
X003181Y004592D01*
X003175Y004650D01*
X003173Y004709D01*
X003175Y004768D01*
X003181Y004826D01*
X003190Y004885D01*
X003204Y004942D01*
X003221Y004998D01*
X003242Y005053D01*
X003266Y005107D01*
X003294Y005159D01*
X003325Y005209D01*
X003359Y005257D01*
X003396Y005302D01*
X003437Y005345D01*
X003480Y005386D01*
X003525Y005423D01*
X003573Y005457D01*
X003623Y005488D01*
X003675Y005516D01*
X003729Y005540D01*
X003784Y005561D01*
X003840Y005578D01*
X003897Y005592D01*
X003956Y005601D01*
X004014Y005607D01*
X004073Y005609D01*
X006773Y005609D01*
X006832Y005607D01*
X006890Y005601D01*
X006949Y005592D01*
X007006Y005578D01*
X007062Y005561D01*
X007117Y005540D01*
X007171Y005516D01*
X007223Y005488D01*
X007273Y005457D01*
X007321Y005423D01*
X007366Y005386D01*
X007409Y005345D01*
X007450Y005302D01*
X007487Y005257D01*
X007521Y005209D01*
X007552Y005159D01*
X007580Y005107D01*
X007604Y005053D01*
X007625Y004998D01*
X007642Y004942D01*
X007656Y004885D01*
X007665Y004826D01*
X007671Y004768D01*
X007673Y004709D01*
X007671Y004650D01*
X007665Y004592D01*
X007656Y004533D01*
X007642Y004476D01*
X007625Y004420D01*
X007604Y004365D01*
X007580Y004311D01*
X007552Y004259D01*
X007521Y004209D01*
X007487Y004161D01*
X007450Y004116D01*
X007409Y004073D01*
X007366Y004032D01*
X007321Y003995D01*
X007273Y003961D01*
X007223Y003930D01*
X007171Y003902D01*
X007117Y003878D01*
X007062Y003857D01*
X007006Y003840D01*
X006949Y003826D01*
X006890Y003817D01*
X006832Y003811D01*
X006773Y003809D01*
X005110Y006771D02*
X004110Y006771D01*
X004110Y008771D01*
X005110Y008771D01*
X005110Y006771D01*
X004860Y007771D02*
X004360Y007771D01*
X003423Y007771D02*
X002923Y007771D01*
X002673Y006771D02*
X002673Y008771D01*
X003673Y008771D01*
X003673Y006771D01*
X002673Y006771D01*
X004610Y009709D02*
X004610Y010209D01*
X003626Y011709D02*
X003628Y011771D01*
X003634Y011834D01*
X003644Y011895D01*
X003658Y011956D01*
X003675Y012016D01*
X003696Y012075D01*
X003722Y012132D01*
X003750Y012187D01*
X003782Y012241D01*
X003818Y012292D01*
X003856Y012342D01*
X003898Y012388D01*
X003942Y012432D01*
X003990Y012473D01*
X004039Y012511D01*
X004091Y012545D01*
X004145Y012576D01*
X004201Y012604D01*
X004259Y012628D01*
X004318Y012649D01*
X004378Y012665D01*
X004439Y012678D01*
X004501Y012687D01*
X004563Y012692D01*
X004626Y012693D01*
X004688Y012690D01*
X004750Y012683D01*
X004812Y012672D01*
X004872Y012657D01*
X004932Y012639D01*
X004990Y012617D01*
X005047Y012591D01*
X005102Y012561D01*
X005155Y012528D01*
X005206Y012492D01*
X005254Y012453D01*
X005300Y012410D01*
X005343Y012365D01*
X005383Y012317D01*
X005420Y012267D01*
X005454Y012214D01*
X005485Y012160D01*
X005511Y012104D01*
X005535Y012046D01*
X005554Y011986D01*
X005570Y011926D01*
X005582Y011864D01*
X005590Y011803D01*
X005594Y011740D01*
X005594Y011678D01*
X005590Y011615D01*
X005582Y011554D01*
X005570Y011492D01*
X005554Y011432D01*
X005535Y011372D01*
X005511Y011314D01*
X005485Y011258D01*
X005454Y011204D01*
X005420Y011151D01*
X005383Y011101D01*
X005343Y011053D01*
X005300Y011008D01*
X005254Y010965D01*
X005206Y010926D01*
X005155Y010890D01*
X005102Y010857D01*
X005047Y010827D01*
X004990Y010801D01*
X004932Y010779D01*
X004872Y010761D01*
X004812Y010746D01*
X004750Y010735D01*
X004688Y010728D01*
X004626Y010725D01*
X004563Y010726D01*
X004501Y010731D01*
X004439Y010740D01*
X004378Y010753D01*
X004318Y010769D01*
X004259Y010790D01*
X004201Y010814D01*
X004145Y010842D01*
X004091Y010873D01*
X004039Y010907D01*
X003990Y010945D01*
X003942Y010986D01*
X003898Y011030D01*
X003856Y011076D01*
X003818Y011126D01*
X003782Y011177D01*
X003750Y011231D01*
X003722Y011286D01*
X003696Y011343D01*
X003675Y011402D01*
X003658Y011462D01*
X003644Y011523D01*
X003634Y011584D01*
X003628Y011647D01*
X003626Y011709D01*
X003910Y012259D02*
X004310Y012259D01*
X002436Y014133D02*
X001936Y014133D01*
X006642Y014485D02*
X006642Y012044D01*
X011209Y012044D01*
X011209Y011729D01*
X006642Y011729D01*
X006642Y012044D01*
X006642Y014485D02*
X011209Y014485D01*
X011209Y012044D01*
X015459Y011098D02*
X015461Y011160D01*
X015467Y011223D01*
X015477Y011284D01*
X015491Y011345D01*
X015508Y011405D01*
X015529Y011464D01*
X015555Y011521D01*
X015583Y011576D01*
X015615Y011630D01*
X015651Y011681D01*
X015689Y011731D01*
X015731Y011777D01*
X015775Y011821D01*
X015823Y011862D01*
X015872Y011900D01*
X015924Y011934D01*
X015978Y011965D01*
X016034Y011993D01*
X016092Y012017D01*
X016151Y012038D01*
X016211Y012054D01*
X016272Y012067D01*
X016334Y012076D01*
X016396Y012081D01*
X016459Y012082D01*
X016521Y012079D01*
X016583Y012072D01*
X016645Y012061D01*
X016705Y012046D01*
X016765Y012028D01*
X016823Y012006D01*
X016880Y011980D01*
X016935Y011950D01*
X016988Y011917D01*
X017039Y011881D01*
X017087Y011842D01*
X017133Y011799D01*
X017176Y011754D01*
X017216Y011706D01*
X017253Y011656D01*
X017287Y011603D01*
X017318Y011549D01*
X017344Y011493D01*
X017368Y011435D01*
X017387Y011375D01*
X017403Y011315D01*
X017415Y011253D01*
X017423Y011192D01*
X017427Y011129D01*
X017427Y011067D01*
X017423Y011004D01*
X017415Y010943D01*
X017403Y010881D01*
X017387Y010821D01*
X017368Y010761D01*
X017344Y010703D01*
X017318Y010647D01*
X017287Y010593D01*
X017253Y010540D01*
X017216Y010490D01*
X017176Y010442D01*
X017133Y010397D01*
X017087Y010354D01*
X017039Y010315D01*
X016988Y010279D01*
X016935Y010246D01*
X016880Y010216D01*
X016823Y010190D01*
X016765Y010168D01*
X016705Y010150D01*
X016645Y010135D01*
X016583Y010124D01*
X016521Y010117D01*
X016459Y010114D01*
X016396Y010115D01*
X016334Y010120D01*
X016272Y010129D01*
X016211Y010142D01*
X016151Y010158D01*
X016092Y010179D01*
X016034Y010203D01*
X015978Y010231D01*
X015924Y010262D01*
X015872Y010296D01*
X015823Y010334D01*
X015775Y010375D01*
X015731Y010419D01*
X015689Y010465D01*
X015651Y010515D01*
X015615Y010566D01*
X015583Y010620D01*
X015555Y010675D01*
X015529Y010732D01*
X015508Y010791D01*
X015491Y010851D01*
X015477Y010912D01*
X015467Y010973D01*
X015461Y011036D01*
X015459Y011098D01*
X016993Y011398D02*
X016993Y011798D01*
X016531Y007959D02*
X016031Y007959D01*
X002436Y010133D02*
X001936Y010133D01*
D15*
X003933Y008634D02*
X004006Y008560D01*
X003969Y008486D02*
X003933Y008450D01*
X003933Y008376D01*
X003969Y008339D01*
X004116Y008339D01*
X004153Y008376D01*
X004153Y008450D01*
X004116Y008486D01*
X004153Y008560D02*
X004153Y008707D01*
X004153Y008634D02*
X003933Y008634D01*
X005370Y008671D02*
X005370Y008597D01*
X005407Y008560D01*
X005407Y008486D02*
X005370Y008450D01*
X005370Y008376D01*
X005407Y008339D01*
X005554Y008339D01*
X005590Y008376D01*
X005590Y008450D01*
X005554Y008486D01*
X005590Y008560D02*
X005444Y008707D01*
X005407Y008707D01*
X005370Y008671D01*
X005590Y008707D02*
X005590Y008560D01*
D16*
X012380Y008516D02*
X012380Y008363D01*
X012457Y008286D01*
X012764Y008286D01*
X012840Y008363D01*
X012840Y008516D01*
X012764Y008593D01*
X012764Y008746D02*
X012840Y008823D01*
X012840Y008976D01*
X012764Y009053D01*
X012687Y009053D01*
X012610Y008976D01*
X012610Y008900D01*
X012610Y008976D02*
X012534Y009053D01*
X012457Y009053D01*
X012380Y008976D01*
X012380Y008823D01*
X012457Y008746D01*
X012457Y008593D02*
X012380Y008516D01*
X012380Y008132D02*
X012380Y007979D01*
X012380Y008056D02*
X012840Y008056D01*
X012840Y008132D02*
X012840Y007979D01*
D17*
X012835Y008003D02*
X012835Y007928D01*
X012760Y007853D01*
X012835Y008003D02*
X012760Y008078D01*
X012385Y008078D01*
X012385Y008003D02*
X012385Y008153D01*
X012385Y008313D02*
X012385Y008538D01*
X012460Y008613D01*
X012610Y008613D01*
X012685Y008538D01*
X012685Y008313D01*
X012835Y008313D02*
X012385Y008313D01*
X012460Y008774D02*
X012385Y008849D01*
X012385Y008999D01*
X012460Y009074D01*
X012535Y009074D01*
X012835Y008774D01*
X012835Y009074D01*
X007138Y003634D02*
X007138Y003184D01*
X006988Y003184D02*
X007288Y003184D01*
X006988Y003484D02*
X007138Y003634D01*
X006827Y003634D02*
X006827Y003559D01*
X006677Y003409D01*
X006677Y003184D01*
X006677Y003409D02*
X006527Y003559D01*
X006527Y003634D01*
X003590Y002051D02*
X003590Y001751D01*
X003290Y002051D01*
X003215Y002051D01*
X003140Y001976D01*
X003140Y001826D01*
X003215Y001751D01*
X003215Y001591D02*
X003140Y001516D01*
X003140Y001366D01*
X003215Y001291D01*
X003515Y001291D01*
X003590Y001366D01*
X003590Y001516D01*
X003515Y001591D01*
X003590Y001134D02*
X003590Y000984D01*
X003590Y001059D02*
X003140Y001059D01*
X003140Y000984D02*
X003140Y001134D01*
X002935Y001109D02*
X002835Y001009D01*
X001685Y000959D01*
X002595Y001189D02*
X002597Y001209D01*
X002603Y001227D01*
X002612Y001245D01*
X002624Y001260D01*
X002639Y001272D01*
X002657Y001281D01*
X002675Y001287D01*
X002695Y001289D01*
X002715Y001287D01*
X002733Y001281D01*
X002751Y001272D01*
X002766Y001260D01*
X002778Y001245D01*
X002787Y001227D01*
X002793Y001209D01*
X002795Y001189D01*
X002793Y001169D01*
X002787Y001151D01*
X002778Y001133D01*
X002766Y001118D01*
X002751Y001106D01*
X002733Y001097D01*
X002715Y001091D01*
X002695Y001089D01*
X002675Y001091D01*
X002657Y001097D01*
X002639Y001106D01*
X002624Y001118D01*
X002612Y001133D01*
X002603Y001151D01*
X002597Y001169D01*
X002595Y001189D01*
X002935Y001109D02*
X002935Y004809D01*
X002835Y004909D01*
X001685Y004959D01*
X003556Y012807D02*
X003631Y012882D01*
X003631Y012957D01*
X003556Y013032D01*
X003181Y013032D01*
X003181Y012957D02*
X003181Y013107D01*
X003181Y013267D02*
X003181Y013493D01*
X003256Y013568D01*
X003406Y013568D01*
X003481Y013493D01*
X003481Y013267D01*
X003631Y013267D02*
X003181Y013267D01*
X003406Y013728D02*
X003406Y013953D01*
X003481Y014028D01*
X003556Y014028D01*
X003631Y013953D01*
X003631Y013803D01*
X003556Y013728D01*
X003406Y013728D01*
X003256Y013878D01*
X003181Y014028D01*
D18*
X001385Y002959D03*
D19*
X001635Y004684D03*
X001635Y001234D03*
D20*
X001635Y002459D03*
X001635Y003459D03*
M02*
